<svg xmlns="http://www.w3.org/2000/svg" width="27.947" height="24.698" viewBox="0 0 27.947 24.698">
  <g id="Groupe_58" data-name="Groupe 58" transform="translate(-75.228 -217.29)">
    <path id="Tracé_31" data-name="Tracé 31" d="M88.512,241.988H86.626a1.86,1.86,0,0,0-.265-.068,12.1,12.1,0,0,1-8.528-4.723,11.97,11.97,0,0,1-2.564-8.569,11.639,11.639,0,0,1,3.024-7.112,12.075,12.075,0,0,1,12.4-3.831c.685.158,1.332.479,2.016.638a16.344,16.344,0,0,1,5.631,2.309,10.426,10.426,0,0,1,4.5,6.315c.149.628.225,1.275.335,1.913v1.815a1.207,1.207,0,0,0-.068.225,10,10,0,0,1-1.3,4.04,11.854,11.854,0,0,1-6.485,5.208c-1.2.442-2.447.775-3.677,1.139-.642.19-1.293.353-1.946.5C89.311,241.882,88.909,241.924,88.512,241.988Zm-10.9-12.361a9.979,9.979,0,1,0,9.969-9.986A9.915,9.915,0,0,0,77.613,229.628Z" transform="translate(0 0)"/>
    <path id="Tracé_32" data-name="Tracé 32" d="M78.618,230.618a9.979,9.979,0,0,1,19.958-.019,9.979,9.979,0,0,1-19.958.019Zm11.031,5.413h0c0-.348.006-.7,0-1.046a1.06,1.06,0,0,0-.994-1.129,1.028,1.028,0,0,0-1.065,1.051c-.031.754-.028,1.511,0,2.266a1.039,1.039,0,0,0,1.063.987,1.051,1.051,0,0,0,1-1.047C89.654,236.752,89.649,236.391,89.649,236.031Zm0-10.691c0-.348.006-.7,0-1.045a1.022,1.022,0,0,0-.984-1.088.994.994,0,0,0-1.075,1.024c-.028.754-.027,1.51,0,2.264a1,1,0,0,0,1.084.982,1.016,1.016,0,0,0,.977-1.058C89.652,226.06,89.647,225.7,89.647,225.34Zm2.025,3.319a2.525,2.525,0,0,0,.628-.32q.864-.81,1.675-1.678a1.027,1.027,0,0,0-1.495-1.405c-.541.543-1.069,1.1-1.6,1.657a.975.975,0,0,0-.182,1.1A1.07,1.07,0,0,0,91.673,228.659ZM84.1,236.214a2.441,2.441,0,0,0,.707-.314q.859-.791,1.648-1.658a1.025,1.025,0,0,0-1.438-1.442c-.592.559-1.158,1.146-1.713,1.741a.934.934,0,0,0-.132,1.076A1.047,1.047,0,0,0,84.1,236.214Zm9,.015.044-.061a2.407,2.407,0,0,0,.436-.1.989.989,0,0,0,.246-1.651c-.48-.507-.979-1-1.472-1.49a1.031,1.031,0,1,0-1.478,1.433c.477.493.948,1,1.457,1.455A3.493,3.493,0,0,0,93.1,236.229Zm-7.543-7.6.05-.067a2.444,2.444,0,0,0,.435-.1.99.99,0,0,0,.243-1.649c-.484-.5-.989-.982-1.485-1.472a1.028,1.028,0,1,0-1.471,1.433c.471.481.937.971,1.44,1.419A3.967,3.967,0,0,0,85.555,228.626Zm-2.287.952c-.325,0-.651,0-.977,0a1.056,1.056,0,0,0-1.108,1.045,1.037,1.037,0,0,0,1.085,1.035c.685.016,1.372.015,2.058,0a1.04,1.04,0,1,0-.012-2.079C83.966,229.57,83.617,229.578,83.268,229.578Zm10.663,2.113,0-.03c.348,0,.7.015,1.046,0a1.038,1.038,0,0,0,.091-2.072c-.754-.022-1.511-.023-2.265,0a1.035,1.035,0,0,0-.956.986.96.96,0,0,0,.768,1.018A11.614,11.614,0,0,0,93.931,231.691Z" transform="translate(-1.005 -0.99)" fill="#fff"/>
    <path id="Tracé_33" data-name="Tracé 33" d="M93.417,241.6c0,.36,0,.721,0,1.081a1.051,1.051,0,0,1-1,1.047,1.039,1.039,0,0,1-1.063-.987c-.023-.754-.026-1.512,0-2.266a1.028,1.028,0,0,1,1.065-1.051,1.06,1.06,0,0,1,.994,1.129c.008.348,0,.7,0,1.046Z" transform="translate(-4.772 -6.559)"/>
    <path id="Tracé_34" data-name="Tracé 34" d="M93.415,226.424c0,.36,0,.72,0,1.079a1.016,1.016,0,0,1-.977,1.058,1,1,0,0,1-1.084-.982c-.026-.754-.027-1.51,0-2.264a.994.994,0,0,1,1.075-1.024,1.022,1.022,0,0,1,.984,1.088C93.422,225.728,93.415,226.076,93.415,226.424Z" transform="translate(-4.773 -2.074)"/>
    <path id="Tracé_35" data-name="Tracé 35" d="M96.723,230.482a1.07,1.07,0,0,1-.971-.647.975.975,0,0,1,.182-1.1c.528-.556,1.056-1.114,1.6-1.657a1.027,1.027,0,0,1,1.495,1.405q-.808.867-1.675,1.678A2.527,2.527,0,0,1,96.723,230.482Z" transform="translate(-6.055 -2.813)"/>
    <path id="Tracé_36" data-name="Tracé 36" d="M85.972,241.24a1.047,1.047,0,0,1-.928-.6.934.934,0,0,1,.132-1.076c.556-.595,1.122-1.182,1.713-1.741a1.025,1.025,0,0,1,1.438,1.442c-.524.576-1.075,1.131-1.648,1.658A2.443,2.443,0,0,1,85.972,241.24Z" transform="translate(-2.876 -6.016)"/>
    <path id="Tracé_37" data-name="Tracé 37" d="M98.119,241.258a3.491,3.491,0,0,1-.768-.41c-.509-.46-.98-.962-1.457-1.455a1.031,1.031,0,1,1,1.478-1.433c.493.493.992.982,1.472,1.49A.989.989,0,0,1,98.6,241.1a2.407,2.407,0,0,1-.436.1Z" transform="translate(-6.027 -6.02)"/>
    <path id="Tracé_38" data-name="Tracé 38" d="M87.4,230.465a3.968,3.968,0,0,1-.789-.436c-.5-.448-.968-.937-1.44-1.419a1.028,1.028,0,1,1,1.471-1.433c.5.49,1,.97,1.485,1.472a.99.99,0,0,1-.243,1.649,2.444,2.444,0,0,1-.435.1Z" transform="translate(-2.853 -2.83)"/>
    <path id="Tracé_39" data-name="Tracé 39" d="M84.348,233.344c.349,0,.7-.008,1.046,0a1.04,1.04,0,1,1,.012,2.079c-.686.014-1.373.015-2.058,0a1.037,1.037,0,0,1-1.085-1.035,1.056,1.056,0,0,1,1.108-1.045C83.7,233.341,84.023,233.344,84.348,233.344Z" transform="translate(-2.085 -4.756)"/>
    <path id="Tracé_40" data-name="Tracé 40" d="M99.5,235.455a11.628,11.628,0,0,1-1.313-.1.96.96,0,0,1-.768-1.018,1.035,1.035,0,0,1,.956-.986c.754-.024,1.511-.023,2.265,0a1.038,1.038,0,0,1-.091,2.072c-.348.018-.7,0-1.046,0Z" transform="translate(-6.575 -4.754)"/>
  </g>
</svg>
