<svg xmlns="http://www.w3.org/2000/svg">
    <path id="Tracé_31" data-name="Tracé 31" d="M161.281,377.282H149.065a12.034,12.034,0,0,0-1.719-.442q-34.064-3.679-55.243-30.6c-12.786-16.278-18.183-34.985-16.611-55.507,1.34-17.449,7.749-33.075,19.587-46.071,21.839-23.977,48.8-32.059,80.341-24.816,4.435,1.021,8.629,3.1,13.06,4.134,12.982,3.031,25.39,7.371,36.476,14.961,14.705,10.065,24.962,23.362,29.142,40.911.966,4.071,1.459,8.26,2.17,12.394v11.76a7.808,7.808,0,0,0-.438,1.454,64.788,64.788,0,0,1-8.4,26.169c-9.614,16.693-24.287,27.222-42.01,33.736-7.795,2.863-15.849,5.019-23.822,7.375-4.162,1.231-8.378,2.288-12.608,3.264C166.46,376.594,163.852,376.867,161.281,377.282Zm-70.6-80.072c0,35.14,28.221,65.791,66.871,64.542,33.226-1.076,62.071-26.776,62.417-64.665.324-35.6-29.1-64.514-64.71-64.564C119.755,232.477,90.691,261.591,90.682,297.21Z" transform="translate(0 0)"/>
    <path id="Tracé_32" data-name="Tracé 32" d="M78.618,285.32c.009-35.619,29.073-64.733,64.578-64.687,35.61.05,65.034,28.964,64.71,64.564-.346,37.889-29.192,63.589-62.417,64.665C106.839,351.11,78.623,320.46,78.618,285.32Zm71.461,35.067h-.014c0-2.256.041-4.517-.009-6.774-.087-4.2-2.689-7.129-6.436-7.316-3.679-.187-6.728,2.626-6.9,6.806-.2,4.887-.182,9.791-.032,14.678a6.728,6.728,0,0,0,6.883,6.391,6.811,6.811,0,0,0,6.5-6.783C150.111,325.055,150.079,322.721,150.079,320.387Zm-.014-69.255c0-2.256.041-4.513-.009-6.769-.087-4.1-2.658-6.915-6.377-7.047-3.934-.137-6.81,2.43-6.965,6.632-.182,4.882-.178,9.782-.009,14.664a6.484,6.484,0,0,0,7.024,6.363c3.606-.109,6.268-2.963,6.332-6.851C150.1,255.8,150.065,253.466,150.065,251.132Zm13.119,21.5c1.372-.675,3-1.076,4.071-2.074q5.6-5.251,10.849-10.872a6.655,6.655,0,0,0-9.682-9.1c-3.505,3.519-6.924,7.134-10.347,10.735a6.316,6.316,0,0,0-1.181,7.125C157.961,271.161,160.176,272.2,163.184,272.629Zm-49.052,48.943c1.545-.656,3.414-.966,4.581-2.038,3.71-3.414,7.28-7.006,10.676-10.739a6.376,6.376,0,0,0-.511-8.8c-2.407-2.416-6.382-2.831-8.8-.542-3.834,3.619-7.5,7.426-11.1,11.277-1.883,2.015-1.942,4.54-.857,6.97C109.209,320.159,111.292,321.216,114.132,321.572Zm58.283.1.287-.392a15.615,15.615,0,0,0,2.826-.634c4.244-1.782,5.055-7.034,1.591-10.694-3.109-3.286-6.341-6.455-9.536-9.65-2.926-2.926-6.906-3.068-9.645-.378-2.767,2.717-2.776,6.724.068,9.664,3.091,3.2,6.14,6.45,9.436,9.427C168.791,320.236,170.742,320.8,172.415,321.668Zm-48.861-49.253.324-.433a15.824,15.824,0,0,0,2.817-.647c4.221-1.787,5.032-7.1,1.573-10.685-3.136-3.25-6.4-6.363-9.618-9.536-2.812-2.776-6.8-2.922-9.477-.351a6.575,6.575,0,0,0-.055,9.636c3.054,3.118,6.067,6.29,9.326,9.19C119.862,270.851,121.831,271.49,123.554,272.415Zm-14.815,6.167c-2.106,0-4.216-.018-6.327,0-4.134.046-7.175,2.922-7.179,6.769,0,3.77,2.867,6.605,7.029,6.705,4.44.1,8.889.1,13.333,0a6.736,6.736,0,1,0-.078-13.47C113.261,278.532,111,278.582,108.74,278.582Zm69.073,13.689.014-.192c2.256,0,4.522.1,6.774-.018,4.08-.214,6.842-2.977,6.824-6.664a6.644,6.644,0,0,0-6.231-6.76c-4.887-.141-9.787-.146-14.673.009a6.705,6.705,0,0,0-6.19,6.386,6.222,6.222,0,0,0,4.978,6.591A75.261,75.261,0,0,0,177.812,292.271Z" transform="translate(12.064 11.891)" fill="#fff"/>
    <path id="Tracé_33" data-name="Tracé 33" d="M104.84,253.522c0,2.334.032,4.668-.009,7a6.811,6.811,0,0,1-6.5,6.783,6.728,6.728,0,0,1-6.883-6.391c-.15-4.887-.169-9.791.032-14.678.173-4.18,3.223-6.992,6.9-6.806,3.747.187,6.35,3.118,6.436,7.316.05,2.256.009,4.517.009,6.774Z" transform="translate(57.303 78.756)"/>
    <path id="Tracé_34" data-name="Tracé 34" d="M104.821,238.112c0,2.334.032,4.663,0,6.993-.064,3.888-2.726,6.742-6.332,6.851a6.484,6.484,0,0,1-7.024-6.363c-.169-4.882-.173-9.782.009-14.664.155-4.2,3.031-6.769,6.965-6.632,3.72.132,6.291,2.945,6.377,7.047C104.862,233.6,104.821,235.856,104.821,238.112Z" transform="translate(57.308 24.91)"/>
    <path id="Tracé_35" data-name="Tracé 35" d="M102.542,250.736c-3.008-.428-5.224-1.468-6.29-4.189a6.316,6.316,0,0,1,1.181-7.125c3.423-3.6,6.842-7.216,10.347-10.735a6.655,6.655,0,0,1,9.682,9.1q-5.238,5.614-10.849,10.872C105.546,249.66,103.914,250.061,102.542,250.736Z" transform="translate(72.706 33.784)"/>
    <path id="Tracé_36" data-name="Tracé 36" d="M91.658,261.221c-2.84-.355-4.923-1.413-6.012-3.87-1.085-2.43-1.026-4.955.857-6.97,3.6-3.852,7.266-7.658,11.1-11.277,2.421-2.288,6.4-1.873,8.8.542a6.376,6.376,0,0,1,.511,8.8c-3.4,3.733-6.965,7.325-10.676,10.739C95.072,260.254,93.2,260.564,91.658,261.221Z" transform="translate(34.538 72.242)"/>
    <path id="Tracé_37" data-name="Tracé 37" d="M112.112,261.274c-1.673-.866-3.624-1.431-4.973-2.657-3.3-2.977-6.345-6.231-9.436-9.427-2.844-2.94-2.835-6.947-.068-9.664,2.74-2.689,6.719-2.548,9.645.378,3.2,3.2,6.427,6.364,9.536,9.65,3.464,3.66,2.653,8.912-1.591,10.694a15.615,15.615,0,0,1-2.826.634Z" transform="translate(72.366 72.284)"/>
    <path id="Tracé_38" data-name="Tracé 38" d="M101.364,250.326c-1.723-.925-3.692-1.563-5.11-2.826-3.259-2.9-6.272-6.072-9.326-9.19a6.575,6.575,0,0,1,.055-9.636c2.676-2.571,6.664-2.425,9.477.351,3.214,3.173,6.482,6.286,9.618,9.536,3.46,3.583,2.648,8.9-1.573,10.685a15.824,15.824,0,0,1-2.817.647Z" transform="translate(34.254 33.98)"/>
    <path id="Tracé_39" data-name="Tracé 39" d="M95.769,233.36c2.261,0,4.522-.05,6.778.014a6.736,6.736,0,1,1,.078,13.47c-4.444.091-8.893.1-13.333,0-4.162-.1-7.034-2.936-7.029-6.705,0-3.847,3.045-6.724,7.179-6.769C91.553,233.341,93.663,233.36,95.769,233.36Z" transform="translate(25.034 57.113)"/>
    <path id="Tracé_40" data-name="Tracé 40" d="M110.923,247.074a75.261,75.261,0,0,1-8.506-.647,6.222,6.222,0,0,1-4.978-6.591,6.705,6.705,0,0,1,6.19-6.386c4.887-.155,9.787-.15,14.673-.009a6.644,6.644,0,0,1,6.231,6.76c.018,3.688-2.744,6.45-6.824,6.664-2.252.114-4.517.018-6.774.018Z" transform="translate(78.952 57.087)"/>
</svg>
