<svg xmlns="http://www.w3.org/2000/svg" width="24.49" height="24.698" viewBox="0 0 24.49 24.698">
  <g id="Groupe_65" data-name="Groupe 65" transform="translate(-455.905 -225.073)">
    <path id="Tracé_69" data-name="Tracé 69" d="M473.56,239.7a10.827,10.827,0,0,0-.3-1.463,3.874,3.874,0,0,0-4.692-2.67.309.309,0,0,0-.269.309,13.514,13.514,0,0,1-.343,1.838,7.7,7.7,0,0,1-3.848,4.927.362.362,0,0,0-.151.283,6.676,6.676,0,0,0,.563,2.666.532.532,0,0,1,.006.4,2.412,2.412,0,0,0-.181,1.2,1.594,1.594,0,0,0,.679,1.209,1.785,1.785,0,0,0,2.129-.027,2.348,2.348,0,0,0,.7-.874.5.5,0,0,1,.239-.238,7.322,7.322,0,0,0,3.517-2.468A7.862,7.862,0,0,0,473.56,239.7Zm6.719-1.029a1.918,1.918,0,0,0-1.344-1.945,1.789,1.789,0,0,0-2.157.987,2.159,2.159,0,0,1-1.247,1.206c-.051.022-.1.061-.147.08-.19.07-.2.209-.215.4a16.087,16.087,0,0,1-.2,2.391,9.752,9.752,0,0,1-3.092,5.143.427.427,0,0,0-.161.492,5.851,5.851,0,0,0,1.271,2.25,3.9,3.9,0,0,0,3.6,1.279,5.019,5.019,0,0,0,3.4-2.293,8.176,8.176,0,0,0,1.369-4.885,7.549,7.549,0,0,0-.862-3.644c-.207-.373-.455-.706-.238-1.16A.826.826,0,0,0,480.279,238.675Z" transform="translate(-0.962 -1.238)" fill="#fff"/>
    <path id="Tracé_70" data-name="Tracé 70" d="M461.972,225.073a1.951,1.951,0,0,1,1.436,1.182,7.806,7.806,0,0,1,.2,1.3c.017.112.015.255.082.328A7.775,7.775,0,0,1,465.575,232a8.436,8.436,0,0,1-.463,4.868,5.4,5.4,0,0,1-3.4,3.291,4.245,4.245,0,0,1-4.734-1.809,6.858,6.858,0,0,1-1-4.811,9.092,9.092,0,0,1,1.973-4.69,16.745,16.745,0,0,1,1.472-1.406.742.742,0,0,0,.245-.36,2.156,2.156,0,0,1,1.651-1.966c.018-.005.033-.028.049-.042Zm1.611,8.067a8.889,8.889,0,0,0-.072-1,19.609,19.609,0,0,0-.406-1.927.778.778,0,0,0-1.042-.521.821.821,0,0,0-.527,1.016,14.359,14.359,0,0,1,.326,1.7,6.368,6.368,0,0,1-.963,4.353.856.856,0,0,0,.141,1.27.835.835,0,0,0,1.211-.3A7.935,7.935,0,0,0,463.583,233.14Z" transform="translate(0)"/>
    <path id="Tracé_71" data-name="Tracé 71" d="M473.56,239.7a7.862,7.862,0,0,1-1.951,5.092,7.322,7.322,0,0,1-3.517,2.468.5.5,0,0,0-.239.238,2.348,2.348,0,0,1-.7.874,1.785,1.785,0,0,1-2.129.027,1.594,1.594,0,0,1-.679-1.209,2.412,2.412,0,0,1,.181-1.2.532.532,0,0,0-.006-.4,6.676,6.676,0,0,1-.563-2.666.362.362,0,0,1,.151-.283,7.7,7.7,0,0,0,3.848-4.927,13.514,13.514,0,0,0,.343-1.838.309.309,0,0,1,.269-.309,3.874,3.874,0,0,1,4.692,2.67A10.827,10.827,0,0,1,473.56,239.7Z" transform="translate(-0.962 -1.238)"/>
    <path id="Tracé_72" data-name="Tracé 72" d="M481.327,238.84a.827.827,0,0,1-.023.3c-.217.454.031.786.238,1.16a7.549,7.549,0,0,1,.862,3.644,8.176,8.176,0,0,1-1.369,4.885,5.019,5.019,0,0,1-3.4,2.293,3.9,3.9,0,0,1-3.6-1.279,5.851,5.851,0,0,1-1.271-2.25.427.427,0,0,1,.161-.492,9.752,9.752,0,0,0,3.092-5.143,16.087,16.087,0,0,0,.2-2.391c.011-.188.025-.326.215-.4.052-.019.1-.058.147-.08a2.159,2.159,0,0,0,1.247-1.206,1.789,1.789,0,0,1,2.157-.987A1.918,1.918,0,0,1,481.327,238.84ZM480.09,243.2c-.066-.6-.112-1.2-.2-1.793a.843.843,0,0,0-.975-.785c-.519.1-.751.532-.663,1.119.366,2.428.008,4.649-1.884,6.42a.793.793,0,0,0-.072,1.141.784.784,0,0,0,1.161.082,8.366,8.366,0,0,0,1.15-1.253A8.735,8.735,0,0,0,480.09,243.2Z" transform="translate(-2.01 -1.403)"/>
  </g>
</svg>
