<svg xmlns="http://www.w3.org/2000/svg">
    <path id="Tracé_69" data-name="Tracé 69" d="M543.065,270.56c-.5-2.561-.972-7.466-2.453-12.052-5.493-17.051-22.145-26.353-38.659-22a2.546,2.546,0,0,0-2.213,2.547c-.762,5.079-1.371,10.245-2.823,15.143-5.224,17.639-14.962,31.875-31.708,40.6a2.984,2.984,0,0,0-1.248,2.329c.3,7.575,1.313,15.012,4.637,21.971a4.382,4.382,0,0,1,.051,3.265,19.873,19.873,0,0,0-1.487,9.926,13.136,13.136,0,0,0,5.594,9.962c5.551,3.94,11.914,3.577,17.545-.225,2.742-1.843,4.208-4.491,5.747-7.2a4.148,4.148,0,0,1,1.966-1.959c11.972-3.512,21.136-11.072,28.98-20.338C536.65,301.114,542.535,288.061,543.065,270.56Zm55.362-8.482c.051-7.793-4.361-14.185-11.072-16.028-6.966-1.923-14.729.994-17.77,8.134-2.184,5.152-5.594,7.924-10.274,9.933-.421.181-.784.5-1.212.66-1.567.581-1.676,1.72-1.77,3.265-.377,6.581-.319,13.3-1.669,19.7-3.584,16.957-12.937,30.707-25.475,42.381-1.35,1.255-1.865,2.394-1.328,4.056a48.213,48.213,0,0,0,10.47,18.539c8.047,8.526,17.943,12.378,29.662,10.543,12.226-1.908,21.18-9,28.029-18.894,8.359-12.088,11.45-25.736,11.283-40.248-.123-10.535-1.945-20.715-7.1-30.025-1.705-3.076-3.751-5.819-1.959-9.556A6.81,6.81,0,0,0,598.427,262.078Z" transform="translate(50.388 64.867)" fill="#fff"/>
    <path id="Tracé_70" data-name="Tracé 70" d="M505.89,225.073c5.3,1.611,9.984,4.252,11.834,9.737,1.139,3.381,1.132,7.147,1.683,10.739.138.922.123,2.1.675,2.7,8.976,9.57,13.271,21.318,15.5,33.892,2.424,13.663,1.683,27.166-3.816,40.11s-14.163,22.769-28,27.115c-14.236,4.477-30.257-1.741-39.008-14.9-8.069-12.125-10-25.519-8.264-39.639a74.915,74.915,0,0,1,16.253-38.645c3.49-4.31,8.1-7.706,12.132-11.588a6.112,6.112,0,0,0,2.017-2.968c1.168-8.279,5.326-13.939,13.6-16.2.152-.044.276-.232.406-.348Zm13.278,66.471a73.246,73.246,0,0,0-.595-8.221,161.538,161.538,0,0,0-3.345-15.876c-1.081-3.911-4.767-5.464-8.584-4.3-3.476,1.059-5.181,4.535-4.346,8.373a118.286,118.286,0,0,1,2.685,14.047c1.2,12.749-.486,24.967-7.938,35.866-2.721,3.983-2.249,8.039,1.161,10.463,3.258,2.322,7.191,1.371,9.977-2.511C516.178,318.26,518.783,305.526,519.167,291.544Z" transform="translate(0)"/>
    <path id="Tracé_71" data-name="Tracé 71" d="M543.065,270.56c-.53,17.5-6.414,30.554-16.072,41.961-7.844,9.266-17.008,16.826-28.98,20.338a4.148,4.148,0,0,0-1.966,1.959c-1.538,2.713-3,5.362-5.747,7.2-5.631,3.8-11.994,4.165-17.545.225a13.136,13.136,0,0,1-5.594-9.962,19.873,19.873,0,0,1,1.487-9.926,4.382,4.382,0,0,0-.051-3.265c-3.323-6.958-4.339-14.4-4.637-21.971a2.984,2.984,0,0,1,1.248-2.329c16.746-8.721,26.484-22.957,31.708-40.6,1.451-4.9,2.061-10.064,2.823-15.143a2.546,2.546,0,0,1,2.213-2.547c16.514-4.354,33.166,4.948,38.659,22C542.092,263.094,542.564,268,543.065,270.56Z" transform="translate(50.388 64.867)"/>
    <path id="Tracé_72" data-name="Tracé 72" d="M543.517,253.431a6.813,6.813,0,0,1-.189,2.46c-1.792,3.737.254,6.479,1.959,9.556,5.159,9.309,6.98,19.489,7.1,30.025.167,14.512-2.924,28.16-11.283,40.248-6.85,9.9-15.8,16.986-28.029,18.894-11.718,1.836-21.615-2.017-29.662-10.543a48.212,48.212,0,0,1-10.47-18.539c-.537-1.661-.022-2.8,1.328-4.056,12.538-11.675,21.891-25.424,25.475-42.381,1.35-6.4,1.292-13.119,1.669-19.7.094-1.546.2-2.685,1.77-3.265.428-.16.791-.479,1.212-.66,4.68-2.01,8.09-4.782,10.274-9.933,3.04-7.14,10.8-10.056,17.77-8.134C539.156,239.245,543.567,245.638,543.517,253.431Zm-10.194,35.909c-.544-4.927-.922-9.875-1.677-14.773-.7-4.571-4.172-7.183-8.032-6.472-4.273.784-6.189,4.383-5.463,9.222,3.018,20,.065,38.3-15.521,52.9a6.536,6.536,0,0,0-.595,9.4c2.569,2.91,6.61,3.432,9.563.675a68.941,68.941,0,0,0,9.476-10.325C529.644,317.855,532.88,304.054,533.323,289.339Z" transform="translate(105.298 73.514)"/>
</svg>
