<svg xmlns="http://www.w3.org/2000/svg">
    <path id="Tracé_51" data-name="Tracé 51" d="M191.679,300.6c-4.863-2.582-4.032-7.2-3.321-11.17,1.068-5.968,2.221-12.146,4.722-17.59a54.835,54.835,0,0,1,31.871-29.542,57.651,57.651,0,0,1,18.6-3.5c3.876-.108,6.291,2.415,6.2,6.28A55.57,55.57,0,0,1,237.5,279.265a54.4,54.4,0,0,1-34.787,20.49c-1.342.221-2.674.561-4.011.841Z" transform="translate(42.917 92.869)"/>
    <path id="Tracé_52" data-name="Tracé 52" d="M241.556,279.853c1.687,7.849-.83,13.817-5.687,19.9-8.2,10.253-12.113,22.512-12.243,35.763-.038,3.946-2.491,5.9-6.437,4.485-21.73-7.817-34.523-23.089-38.588-45.752a48.294,48.294,0,0,1-.561-7.65,5.63,5.63,0,0,1,6.183-5.86c14.895.528,27.86,5.66,38.674,16.065.733.706,1.968.89,2.965,1.321a11.345,11.345,0,0,0,.992-3.121c.113-4.534-.113-9.078.1-13.606.21-4.658-1.768-7.439-6.011-9.294a41.065,41.065,0,0,1-23.326-25.31,62.536,62.536,0,0,1-2.372-12.642c-.394-3.364,1.472-4.992,4.857-4.906,21.121.534,38.992,16.6,41.385,37.5C241.987,271.147,241.556,275.659,241.556,279.853Z" transform="translate(0 50.928)"/>
    <path id="Tracé_53" data-name="Tracé 53" d="M243.48,284.657c-1.245,14.34-8.69,26.555-22.97,34.383-2.6,1.423-5.008.162-5.488-2.819a50.055,50.055,0,0,0-11.838-25.93A65.785,65.785,0,0,0,196,283.557c-1.714-1.423-2.776-2.938-2.5-5.229.377-3.191-.674-5.962-2.248-8.717a42.281,42.281,0,0,1,6.275-50.264c2.129-2.21,4.14-2.3,6.2-.1,8.442,9.046,12.534,19.677,11.779,32.14a43.636,43.636,0,0,1-5.763,19.094,11.809,11.809,0,0,0-1.375,4.954c-.2,3.574-.129,7.175-.016,10.755a2.931,2.931,0,0,0,1.127,2.243,2.829,2.829,0,0,0,2.41-.6,41.676,41.676,0,0,1,20.286-9.677,43.756,43.756,0,0,1,5.87-.609C242.424,277.384,243.55,278.538,243.48,284.657Z" transform="translate(33.644 0)"/>
</svg>
