<svg xmlns="http://www.w3.org/2000/svg" width="16.103" height="24.698" viewBox="0 0 16.103 24.698">
  <g id="Groupe_60" data-name="Groupe 60" transform="translate(-178.04 -217.642)">
    <path id="Tracé_51" data-name="Tracé 51" d="M188.357,247.474c-.683-.363-.566-1.011-.466-1.569a10.255,10.255,0,0,1,.663-2.471,7.7,7.7,0,0,1,4.477-4.15,8.1,8.1,0,0,1,2.613-.491.8.8,0,0,1,.871.882,7.806,7.806,0,0,1-1.722,4.8,7.642,7.642,0,0,1-4.887,2.878c-.189.031-.376.079-.563.118Z" transform="translate(-2.373 -5.134)"/>
    <path id="Tracé_52" data-name="Tracé 52" d="M186.962,236.35a3.137,3.137,0,0,1-.8,2.8,8,8,0,0,0-1.72,5.024c-.005.554-.35.829-.9.63a7.877,7.877,0,0,1-5.42-6.427,6.783,6.783,0,0,1-.079-1.075.791.791,0,0,1,.869-.823,7.966,7.966,0,0,1,5.433,2.257,1.383,1.383,0,0,0,.416.186,1.594,1.594,0,0,0,.139-.438c.016-.637-.016-1.275.014-1.911a1.229,1.229,0,0,0-.844-1.306,5.768,5.768,0,0,1-3.277-3.555,8.784,8.784,0,0,1-.333-1.776c-.055-.473.207-.7.682-.689a6.008,6.008,0,0,1,5.813,5.268A16.088,16.088,0,0,1,186.962,236.35Z" transform="translate(0 -2.816)"/>
    <path id="Tracé_53" data-name="Tracé 53" d="M193.818,227.055a5.914,5.914,0,0,1-3.227,4.83.493.493,0,0,1-.771-.4,7.031,7.031,0,0,0-1.663-3.642,9.242,9.242,0,0,0-1.009-.946.782.782,0,0,1-.351-.735,1.951,1.951,0,0,0-.316-1.224,5.939,5.939,0,0,1,.881-7.061.525.525,0,0,1,.872-.014,5.85,5.85,0,0,1,1.655,4.515,6.129,6.129,0,0,1-.81,2.682,1.659,1.659,0,0,0-.193.7c-.029.5-.018,1.008,0,1.511a.412.412,0,0,0,.158.315.4.4,0,0,0,.339-.085,5.854,5.854,0,0,1,2.85-1.359,6.146,6.146,0,0,1,.825-.086C193.67,226.034,193.828,226.2,193.818,227.055Z" transform="translate(-1.86 0)"/>
  </g>
</svg>
