<svg xmlns="http://www.w3.org/2000/svg" width="25.963" height="24.698" viewBox="0 0 25.963 24.698">
  <g id="Groupe_63" data-name="Groupe 63" transform="translate(-368.44 -221.431)">
    <path id="Tracé_62" data-name="Tracé 62" d="M382.062,235.413c.066-.08.165-.19.257-.307a12.684,12.684,0,0,1,4.3-3.48A19.238,19.238,0,0,1,391.75,230c.316-.059.751-.02.914-.211s.061-.615.063-.937c0-.625,0-1.249,0-1.877-.379-.047-.721-.111-1.065-.128a13.814,13.814,0,0,0-6.074.85,6.254,6.254,0,0,0-3.5,3.242.945.945,0,0,1-.1.145,7.343,7.343,0,0,0-4.356-3.835,16.108,16.108,0,0,0-6.206-.913c-.018,0-.034.022-.04.026,0,1.109,0,2.209.011,3.31,0,.073.148.185.244.208,1.17.288,2.355.523,3.513.851a12.266,12.266,0,0,1,4.881,2.653C380.737,234.016,381.374,234.722,382.062,235.413Z" transform="translate(-0.592 -0.986)" fill="#fff"/>
    <path id="Tracé_63" data-name="Tracé 63" d="M368.44,232.566a17.559,17.559,0,0,1,8.7,2.4,9.389,9.389,0,0,1,4.178,5.148c.023.069.053.136.105.264.153-.4.274-.745.42-1.083a9.589,9.589,0,0,1,4.246-4.573,17.484,17.484,0,0,1,7.184-2.093c.323-.03.646-.045.97-.064a.82.82,0,0,1,.129.01.294.294,0,0,1,.034.091c-.02,1.287.02,2.577-.076,3.858a12.048,12.048,0,0,1-1.915,5.554c-.051-.294-.085-.518-.13-.74a6.918,6.918,0,0,0-2.557-4.156.82.82,0,0,0-1.164.039.8.8,0,0,0,.143,1.2,5.613,5.613,0,0,1,1.961,2.976,5.556,5.556,0,0,1,.011,2.757,1.051,1.051,0,0,1-.27.458,12.856,12.856,0,0,1-2.434,1.9c-.061-.475-.1-.933-.182-1.381a6.806,6.806,0,0,0-2.147-3.826c-.143-.132-.291-.26-.446-.378a.821.821,0,0,0-1.14.068.792.792,0,0,0,.12,1.152,6.556,6.556,0,0,1,1.632,1.949,4.816,4.816,0,0,1,.538,1.871c.043.372,0,.754.015,1.131.011.231-.1.315-.293.388a14.315,14.315,0,0,1-4.2.857,12.7,12.7,0,0,1-5.294-.86.365.365,0,0,1-.287-.36,5.361,5.361,0,0,1,2.1-4.886.823.823,0,0,0-.127-1.459.877.877,0,0,0-.872.2,6.9,6.9,0,0,0-2.662,5.258c0,.065-.006.129-.014.194,0,.018-.022.033-.081.118-.663-.516-1.309-1.049-1.987-1.538a2.163,2.163,0,0,1-.831-1.833,5.5,5.5,0,0,1,2.092-4.725.807.807,0,0,0-.122-1.438.728.728,0,0,0-.735.107,6.9,6.9,0,0,0-2.673,4.473,1.112,1.112,0,0,1-.141.426c-.231-.457-.479-.906-.69-1.37a12.162,12.162,0,0,1-1.049-3.984,1.164,1.164,0,0,0-.061-.214Z" transform="translate(0 -2.242)"/>
    <path id="Tracé_64" data-name="Tracé 64" d="M383.929,221.431c.337.066.675.122,1.009.2a8.331,8.331,0,0,1,4.592,2.715,10.431,10.431,0,0,0-6.379,2.859,11.048,11.048,0,0,0-6.1-3.091l-.041-.1c.5-.4.983-.827,1.511-1.185a8.3,8.3,0,0,1,3.639-1.336.591.591,0,0,0,.145-.06Z" transform="translate(-1.726 0)"/>
    <path id="Tracé_65" data-name="Tracé 65" d="M382.062,235.413c-.688-.692-1.325-1.4-2.03-2.028a12.266,12.266,0,0,0-4.881-2.653c-1.158-.328-2.343-.563-3.513-.851-.1-.023-.244-.136-.244-.208-.016-1.1-.011-2.2-.011-3.31.006,0,.022-.026.04-.026a16.108,16.108,0,0,1,6.206.913,7.343,7.343,0,0,1,4.356,3.835.945.945,0,0,0,.1-.145,6.254,6.254,0,0,1,3.5-3.242,13.814,13.814,0,0,1,6.074-.85c.343.017.685.081,1.065.128,0,.628,0,1.252,0,1.877,0,.322.1.744-.063.937s-.6.152-.914.211a19.238,19.238,0,0,0-5.13,1.626,12.684,12.684,0,0,0-4.3,3.48C382.227,235.223,382.128,235.334,382.062,235.413Z" transform="translate(-0.592 -0.986)"/>
  </g>
</svg>
