<svg xmlns="http://www.w3.org/2000/svg">
    <path id="Tracé_62" data-name="Tracé 62" d="M476.958,316.128c.655-.789,1.634-1.879,2.542-3.031a125.373,125.373,0,0,1,42.511-34.4c16.025-8.044,33.156-12.773,50.713-16.073,3.126-.584,7.428-.2,9.031-2.084,1.61-1.9.6-6.078.624-9.26.047-6.173.008-12.347.008-18.552-3.75-.466-7.128-1.1-10.523-1.263-20.533-.995-40.766.395-60.044,8.4-15.465,6.426-27.6,16.467-34.6,32.043a9.374,9.374,0,0,1-1.034,1.429c-8.8-19.27-24.141-30.725-43.055-37.908-19.759-7.5-40.379-9.56-61.346-9.023-.174.008-.339.221-.395.26,0,10.965-.047,21.836.111,32.714.008.718,1.46,1.831,2.416,2.06,11.565,2.85,23.28,5.171,34.727,8.415a121.249,121.249,0,0,1,48.25,26.225C463.861,302.313,470.161,309.291,476.958,316.128Z" transform="translate(20.277 33.767)" fill="#fff"/>
    <path id="Tracé_63" data-name="Tracé 63" d="M368.44,232.566c30.559,1.026,59.594,7.768,85.961,23.754,19.775,11.976,33.851,28.8,41.3,50.887.229.679.529,1.342,1.042,2.613,1.508-3.924,2.708-7.365,4.152-10.7,8.652-20.012,23.3-34.609,41.974-45.2,21.986-12.465,45.976-18.457,71.009-20.691,3.189-.292,6.386-.442,9.583-.631a8.121,8.121,0,0,1,1.279.1,2.914,2.914,0,0,1,.339.9c-.2,12.718.2,25.475-.75,38.137-1.476,19.546-8.084,37.569-18.93,54.9-.505-2.905-.845-5.116-1.287-7.31a68.388,68.388,0,0,0-25.277-41.082c-3.868-3.087-8.771-2.865-11.5.387-3.126,3.718-2.716,8.447,1.413,11.865,9.5,7.847,16.294,17.375,19.388,29.422a54.925,54.925,0,0,1,.111,27.251,10.392,10.392,0,0,1-2.668,4.523,127.087,127.087,0,0,1-24.062,18.828c-.608-4.7-.963-9.221-1.8-13.649A67.279,67.279,0,0,0,538.5,319.04c-1.413-1.3-2.881-2.566-4.405-3.734-3.695-2.842-8.557-2.526-11.273.671A7.825,7.825,0,0,0,524,327.361a64.814,64.814,0,0,1,16.128,19.262c3.292,5.81,4.579,12.07,5.321,18.5.426,3.679-.04,7.452.15,11.178.111,2.281-.979,3.118-2.9,3.837A141.508,141.508,0,0,1,501.19,388.6a125.507,125.507,0,0,1-52.331-8.5c-1.737-.663-2.668-1.413-2.834-3.56-1.484-19.759,5.234-36.029,20.794-48.3,6.078-4.792,4.128-12.686-1.255-14.423-3.347-1.073-6.11-.071-8.621,1.982-16.459,13.428-25.38,30.677-26.312,51.976-.032.639-.063,1.279-.142,1.918-.023.174-.213.324-.8,1.168-6.552-5.1-12.939-10.373-19.641-15.2-6.339-4.555-7.886-10.981-8.21-18.117-.861-19,5.992-34.561,20.683-46.71,5.518-4.563,4.8-12.031-1.208-14.21a7.2,7.2,0,0,0-7.263,1.058c-14.5,11.328-23.478,25.972-26.422,44.216a10.989,10.989,0,0,1-1.389,4.215c-2.281-4.516-4.737-8.952-6.821-13.547a120.223,120.223,0,0,1-10.365-39.385,11.485,11.485,0,0,0-.608-2.116Z" transform="translate(0 76.768)"/>
    <path id="Tracé_64" data-name="Tracé 64" d="M445.392,221.431c3.331.647,6.671,1.208,9.97,1.95a82.355,82.355,0,0,1,45.392,26.833c-24.457,2.06-45.1,11.692-63.06,28.262-16.894-16.468-36.914-26.825-60.281-30.551l-.4-.979c4.966-3.931,9.718-8.171,14.936-11.715,10.847-7.373,22.988-11.494,35.974-13.207a5.828,5.828,0,0,0,1.429-.592Z" transform="translate(59.091 0)"/>
    <path id="Tracé_65" data-name="Tracé 65" d="M476.958,316.128c-6.8-6.836-13.1-13.815-20.067-20.044a121.249,121.249,0,0,0-48.25-26.225c-11.447-3.245-23.162-5.565-34.727-8.415-.955-.229-2.408-1.342-2.416-2.06-.158-10.878-.111-21.749-.111-32.714.055-.039.221-.253.395-.26,20.967-.537,41.587,1.524,61.346,9.023,18.915,7.184,34.253,18.639,43.055,37.908a9.374,9.374,0,0,0,1.034-1.429c7-15.575,19.136-25.617,34.6-32.043,19.278-8,39.511-9.394,60.044-8.4,3.395.166,6.773.8,10.523,1.263,0,6.2.04,12.378-.008,18.552-.024,3.181.987,7.357-.624,9.26-1.6,1.887-5.905,1.5-9.031,2.084-17.557,3.3-34.687,8.028-50.713,16.073A125.373,125.373,0,0,0,479.5,313.1C478.592,314.249,477.613,315.338,476.958,316.128Z" transform="translate(20.277 33.767)"/>
</svg>
