<svg xmlns="http://www.w3.org/2000/svg" width="18.532" height="24.698" viewBox="0 0 18.532 24.698">
  <g id="Groupe_66" data-name="Groupe 66" transform="translate(-225.741 -281.627)">
    <path id="Tracé_73" data-name="Tracé 73" d="M242.048,316.766h-14.07c-.016-.012-.032-.032-.049-.035a2.694,2.694,0,0,1-2.187-2.843c.044-3.682.012-7.364.014-11.046a1.072,1.072,0,0,1,.08-.385q.947-2.385,1.905-4.766c.176-.44.258-.493.732-.493H241.55c.477,0,.56.054.735.491q.948,2.368,1.893,4.739a1.082,1.082,0,0,1,.094.383q0,5.693,0,11.386a2.351,2.351,0,0,1-1.008,2.013A7.157,7.157,0,0,1,242.048,316.766Zm-7.5-4.142a8.188,8.188,0,0,0,.887-.153,5.679,5.679,0,0,0,3.093-2.071,7.251,7.251,0,0,0,1.547-5.451,4.18,4.18,0,0,0-.96-2.23c-.14-.162-.251-.2-.435-.051-.287.232-.6.437-.9.649a2.953,2.953,0,0,0-1.343,2.02c-.144,1.014-.227,2.038-.309,3.06a5.318,5.318,0,0,1-1.573,3.733C234.37,312.295,234.394,312.44,234.544,312.624Zm-3.653-4.263c.037.366.052.738.115,1.1a4.025,4.025,0,0,0,1.061,2.177c.122.127.236.178.4.054.26-.2.528-.389.8-.569a2.191,2.191,0,0,0,1-1.356c.139-.617.237-1.246.316-1.875.115-.915.149-1.843.305-2.75a4.987,4.987,0,0,1,1.787-3.006c.093-.079.123-.233.182-.352-.122-.05-.242-.109-.368-.148a.409.409,0,0,0-.183.009,5.926,5.926,0,0,0-3.358,1.732A7.6,7.6,0,0,0,230.892,308.361Z" transform="translate(0 -10.441)"/>
    <path id="Tracé_74" data-name="Tracé 74" d="M239.183,285.227q3.268,0,6.536,0c.532,0,.7-.17.7-.7,0-.432.01-.864,0-1.3a1.543,1.543,0,0,0-1.561-1.6q-5.657-.006-11.314,0a1.466,1.466,0,0,0-1.491,1.251,12.164,12.164,0,0,0-.056,1.567c-.008.633.143.779.774.779Z" transform="translate(-4.194)" fill="#fff"/>
    <path id="Tracé_75" data-name="Tracé 75" d="M239.183,285.227H232.77c-.632,0-.782-.146-.774-.779a12.164,12.164,0,0,1,.056-1.567,1.466,1.466,0,0,1,1.491-1.251q5.657-.005,11.314,0a1.543,1.543,0,0,1,1.561,1.6c.012.431,0,.863,0,1.3,0,.529-.169.7-.7.7Q242.45,285.229,239.183,285.227Z" transform="translate(-4.194)"/>
  </g>
</svg>
