<svg xmlns="http://www.w3.org/2000/svg" width="23.833" height="23.837" viewBox="0 0 23.833 23.837">
  <g id="Groupe_67" data-name="Groupe 67" transform="translate(-185.834 -302.943)">
    <path id="Tracé_76" data-name="Tracé 76" d="M189.674,313.147c-3.251,2.628-3.987,6.68-1.665,9.993-.066.07-.134.145-.2.216-.561.565-1.136,1.118-1.681,1.7a1.01,1.01,0,0,0,.527,1.7.992.992,0,0,0,.973-.309l1.8-1.854a7.189,7.189,0,0,0,10.036-1.653,10.314,10.314,0,0,1-6.2-2.476c-.5.495-.99.975-1.48,1.451a4.522,4.522,0,0,1-.522.469.68.68,0,0,1-.846-.046.741.741,0,0,1-.027-1.174c.587-.594,1.18-1.182,1.783-1.784A10.391,10.391,0,0,1,189.674,313.147Zm13.626-2.326a6.444,6.444,0,0,0,4.233-1.419,6.515,6.515,0,0,0,2.048-6.183c-.027-.215-.183-.192-.311-.208a8.253,8.253,0,0,0-2.466.049,5.735,5.735,0,0,0-4.013,2.584,6.912,6.912,0,0,0-.876,4.91.275.275,0,0,0,.2.158C202.508,310.76,202.9,310.787,203.3,310.821Zm-5.706,3.11c.1-.1.177-.164.248-.235.809-.808,1.609-1.628,2.433-2.42a1.356,1.356,0,0,0,.456-.863c.051-.486.122-.973.131-1.46a5.869,5.869,0,0,0-1.656-4.337.523.523,0,0,0-.844-.027q-1.313,1.286-2.618,2.582a.619.619,0,0,0-.166.338,7.916,7.916,0,0,0,.142,2.555A8.674,8.674,0,0,0,197.594,313.931Zm1.115,1c.016.087.014.1.02.106a8.51,8.51,0,0,0,6.47,1.99.416.416,0,0,0,.228-.126q1.313-1.327,2.616-2.664a.488.488,0,0,0-.015-.8,10.1,10.1,0,0,0-1.491-1.053,6.57,6.57,0,0,0-4.553-.447,1.06,1.06,0,0,0-.491.267c-.66.638-1.3,1.3-1.954,1.941C199.258,314.427,198.964,314.692,198.708,314.931Zm-4.678-6.093c-.935.916-1.817,1.778-2.693,2.647a.476.476,0,0,0-.105.272,8.567,8.567,0,0,0,.927,4.912,6.641,6.641,0,0,0,1.052,1.567l3.28-3.259a10.088,10.088,0,0,1-1.716-2.811A10.6,10.6,0,0,1,194.03,308.839Zm9.777,9.879-.1-.14a10.242,10.242,0,0,1-6.053-2.433l-3.267,3.267c.024.021.075.07.13.114a8.9,8.9,0,0,0,5.672,1.918,1.7,1.7,0,0,0,1.362-.569C202.264,320.116,203.053,319.432,203.807,318.717Z" transform="translate(0)" fill="#fff"/>
    <path id="Tracé_77" data-name="Tracé 77" d="M189.674,343.289a10.391,10.391,0,0,0,2.494,6.23c-.6.6-1.2,1.189-1.783,1.784a.741.741,0,0,0,.027,1.174.68.68,0,0,0,.846.046,4.522,4.522,0,0,0,.522-.469c.49-.476.976-.956,1.48-1.451a10.314,10.314,0,0,0,6.2,2.476,7.189,7.189,0,0,1-10.036,1.653l-1.8,1.854a.992.992,0,0,1-.973.309,1.01,1.01,0,0,1-.527-1.7c.545-.58,1.12-1.133,1.681-1.7.071-.071.138-.146.2-.216C185.687,349.969,186.423,345.917,189.674,343.289Z" transform="translate(0 -30.142)"/>
    <path id="Tracé_78" data-name="Tracé 78" d="M250.482,310.821c-.4-.034-.792-.061-1.186-.11a.275.275,0,0,1-.2-.158,6.912,6.912,0,0,1,.876-4.91,5.735,5.735,0,0,1,4.013-2.584,8.253,8.253,0,0,1,2.466-.049c.128.015.284-.008.311.208a6.515,6.515,0,0,1-2.048,6.183A6.443,6.443,0,0,1,250.482,310.821Z" transform="translate(-47.182)"/>
    <path id="Tracé_79" data-name="Tracé 79" d="M226.229,318.2a8.674,8.674,0,0,1-1.875-3.867,7.916,7.916,0,0,1-.142-2.555.619.619,0,0,1,.166-.338q1.3-1.3,2.618-2.582a.523.523,0,0,1,.844.027,5.869,5.869,0,0,1,1.656,4.337c-.009.487-.081.974-.131,1.46a1.356,1.356,0,0,1-.456.863c-.824.793-1.624,1.612-2.433,2.42C226.406,318.034,226.331,318.1,226.229,318.2Z" transform="translate(-28.635 -4.266)"/>
    <path id="Tracé_80" data-name="Tracé 80" d="M236.736,340.906c.255-.24.549-.5.83-.783.653-.645,1.294-1.3,1.954-1.941a1.06,1.06,0,0,1,.491-.267,6.57,6.57,0,0,1,4.553.447,10.1,10.1,0,0,1,1.491,1.053.488.488,0,0,1,.015.8q-1.3,1.338-2.616,2.664a.416.416,0,0,1-.228.126,8.51,8.51,0,0,1-6.47-1.99C236.75,341.008,236.752,340.994,236.736,340.906Z" transform="translate(-38.028 -25.975)"/>
    <path id="Tracé_81" data-name="Tracé 81" d="M209.82,326.254a10.605,10.605,0,0,0,.745,3.328,10.089,10.089,0,0,0,1.716,2.811L209,335.652a6.642,6.642,0,0,1-1.052-1.567,8.567,8.567,0,0,1-.927-4.912.476.476,0,0,1,.105-.272C208,328.032,208.885,327.17,209.82,326.254Z" transform="translate(-15.79 -17.415)"/>
    <path id="Tracé_82" data-name="Tracé 82" d="M229.084,357.713c-.755.715-1.543,1.4-2.251,2.158a1.7,1.7,0,0,1-1.362.569,8.9,8.9,0,0,1-5.672-1.918c-.055-.044-.106-.093-.13-.114l3.267-3.267a10.242,10.242,0,0,0,6.053,2.433Z" transform="translate(-25.277 -38.996)"/>
  </g>
</svg>
