<svg xmlns="http://www.w3.org/2000/svg" width="24.413" height="24.698" viewBox="0 0 24.413 24.698">
  <g id="Groupe_62" data-name="Groupe 62" transform="translate(-262.362 -215.397)">
    <path id="Tracé_59" data-name="Tracé 59" d="M282.062,240.095H270.52c0-1.646.011-3.291-.016-4.936a3.708,3.708,0,0,0-.228-1.29c-.443-1.115-.955-2.2-1.423-3.305a1.966,1.966,0,0,1-.176-.737q-.018-4.783-.007-9.565a1.428,1.428,0,0,1,1.754-1.371,1.469,1.469,0,0,1,1.131,1.528c.007.782,0,1.564.007,2.346a.827.827,0,0,0,.113.433.55.55,0,0,0,.635.263.633.633,0,0,0,.5-.655c0-1.584,0-3.167,0-4.752a1.446,1.446,0,1,1,2.891-.025c.007.689,0,1.379,0,2.067,0,.895,0,1.79,0,2.684a.628.628,0,0,0,.918.62.728.728,0,0,0,.345-.735q-.007-2.885,0-5.77a1.444,1.444,0,1,1,2.882.071c0,1.862,0,3.724,0,5.585a1.779,1.779,0,0,0,.05.488.594.594,0,0,0,.911.337.718.718,0,0,0,.321-.688q0-2.129,0-4.258a1.334,1.334,0,0,1,.765-1.242,1.354,1.354,0,0,1,1.406.036,1.508,1.508,0,0,1,.715,1.411q0,2.576,0,5.153a3.48,3.48,0,0,1-.05,1.279,3.332,3.332,0,0,1-.9.958.817.817,0,0,1-.426.172,14.624,14.624,0,0,0-1.7.208,3.982,3.982,0,0,0-2.809,3.724.638.638,0,1,0,1.27.041,2.709,2.709,0,0,1,2.071-2.593,5.557,5.557,0,0,1,1.436-.11,1.2,1.2,0,0,0,.944-.406c.869-.89,1.755-1.764,2.646-2.633a1.3,1.3,0,0,1,1.423-.315,1.355,1.355,0,0,1,.934,1.123,1.451,1.451,0,0,1-.508,1.319q-3,3-6.009,5.991a.9.9,0,0,0-.295.707q.032,1.387.031,2.775C282.084,237.384,282.07,238.739,282.062,240.095Z" transform="translate(-2.11 0)"/>
    <path id="Tracé_60" data-name="Tracé 60" d="M262.362,221.835a1.594,1.594,0,0,1,.936-1.145,1.435,1.435,0,0,1,1.964,1.375q.014,4.658.015,9.317a3.553,3.553,0,0,0,.316,1.491c.485,1.075.954,2.157,1.419,3.24a1.254,1.254,0,0,1,.1.476c.005,1.748,0,3.5,0,5.244h-2.9c0-1.8.008-3.6,0-5.4a1.949,1.949,0,0,0-.162-.715c-.552-1.32-1.122-2.633-1.686-3.949Z" transform="translate(0 -1.737)"/>
  </g>
</svg>
