<svg xmlns="http://www.w3.org/2000/svg">
    <path id="Tracé_59" data-name="Tracé 59" d="M387.891,435.232H285.159c-.018-14.647.1-29.294-.142-43.936a33,33,0,0,0-2.032-11.479c-3.939-9.921-8.5-19.587-12.669-29.419a17.5,17.5,0,0,1-1.57-6.557q-.16-42.573-.059-85.141A12.707,12.707,0,0,1,284.3,246.494c6.237,1.5,10.016,6.539,10.069,13.6.059,6.959-.035,13.919.059,20.878a7.358,7.358,0,0,0,1.007,3.85c1.285,1.883,3.169,3.056,5.656,2.339a5.631,5.631,0,0,0,4.424-5.828c.03-14.1,0-28.193.024-42.3.012-7.587,5.425-13.184,12.752-13.261s12.9,5.49,12.983,13.042c.059,6.136.012,12.272.012,18.4,0,7.966-.041,15.932.018,23.893.041,4.8,4.324,7.629,8.173,5.52,2.63-1.439,3.074-3.814,3.068-6.539q-.062-25.676-.006-51.357c.029-9.352,8.381-15.482,17.064-12.651,5.366,1.747,8.576,6.628,8.588,13.279.035,16.572,0,33.144.03,49.711a15.838,15.838,0,0,0,.444,4.341,5.287,5.287,0,0,0,8.109,3c2.333-1.41,2.861-3.619,2.861-6.124q-.018-18.95,0-37.9c0-5.076,2.446-8.707,6.811-11.052a12.052,12.052,0,0,1,12.515.32c4.738,2.819,6.361,7.309,6.367,12.557q.027,22.93,0,45.867c-.006,3.838.948,8.114-.444,11.384-1.433,3.376-5.088,5.864-7.972,8.529a7.273,7.273,0,0,1-3.791,1.528c-5.04.687-10.264.586-15.139,1.854-14.114,3.672-25.125,18.61-25,33.15.029,3.637,2.274,6.237,5.461,6.32,3.21.089,5.668-2.417,5.846-5.958.574-11.342,7.445-20.292,18.438-23.081,4.087-1.036,8.517-1.042,12.782-.977a10.658,10.658,0,0,0,8.4-3.613c7.735-7.925,15.625-15.7,23.549-23.437a11.576,11.576,0,0,1,12.663-2.807,12.057,12.057,0,0,1,8.316,9.992c.812,4.839-1.273,8.487-4.525,11.739q-26.733,26.671-53.483,53.329a7.991,7.991,0,0,0-2.624,6.3q.285,12.349.273,24.7C388.081,411.1,387.962,423.167,387.891,435.232Z" transform="translate(31.041 0)"/>
    <path id="Tracé_60" data-name="Tracé 60" d="M262.362,231.677c1.386-4.543,3.619-8.4,8.333-10.193,8.653-3.281,17.449,2.831,17.478,12.237q.125,41.463.136,82.932a31.624,31.624,0,0,0,2.813,13.267c4.318,9.565,8.488,19.2,12.634,28.838a11.164,11.164,0,0,1,.93,4.235c.047,15.559,0,31.119-.024,46.678H278.845c.006-16.009.071-32.025-.036-48.04a17.356,17.356,0,0,0-1.439-6.361c-4.916-11.751-9.986-23.437-15.008-35.146Z" transform="translate(0 25.561)"/>
</svg>
