<svg xmlns="http://www.w3.org/2000/svg" width="24.661" height="24.698" viewBox="0 0 24.661 24.698">
  <path id="Tracé_83" data-name="Tracé 83" d="M47.129,357.711a1.26,1.26,0,0,1,1.066-.9c.755-.129,1.507-.287,2.267-.365a1.023,1.023,0,0,1,.967,1.508.465.465,0,0,0,.093.643c.48.477.935.981,1.416,1.457a.47.47,0,0,0,.381.124c.2-.058.169-.238.11-.412-.261-.774-.569-1.538-.76-2.329a9.449,9.449,0,0,1,8.023-11.788,7.322,7.322,0,0,1,.89-.061,1.037,1.037,0,0,1,.048,2.072c-.549.052-1.1.11-1.641.206-.41.073-.455.267-.163.56q1.935,1.942,3.874,3.878c.3.3.486.249.59-.157a6.835,6.835,0,0,0-.321-4.392,8.988,8.988,0,0,1-.736-4.257,19.567,19.567,0,0,1,.472-2.4c.079-.359.385-.534.677-.706H65a1.16,1.16,0,0,1,.627,1.407.659.659,0,0,0,.165.519c1.324,1.362,2.665,2.706,4,4.057a.712.712,0,0,0,.675.172,1.706,1.706,0,0,1,.8.051.86.86,0,0,1,.512,1.036.893.893,0,0,1-.634.759,8.409,8.409,0,0,1-2.734.515,1.01,1.01,0,0,1-.942-1.479.5.5,0,0,0-.12-.689c-.463-.436-.9-.9-1.349-1.35-.127-.128-.277-.275-.441-.116a.465.465,0,0,0-.069.394c.233.772.523,1.528.733,2.306a9.357,9.357,0,0,1-6.526,11.5,13.567,13.567,0,0,1-2.362.358,1.011,1.011,0,0,1-1.044-1.026,1.043,1.043,0,0,1,1-1.04c.539-.047,1.079-.106,1.611-.2.42-.075.463-.273.159-.578q-1.935-1.942-3.874-3.879c-.289-.289-.464-.24-.569.159a7.015,7.015,0,0,0,.23,4.225,15.584,15.584,0,0,1,.773,2.639,7.9,7.9,0,0,1-.147,3.232c-.085.337-.172.674-.28,1a1.042,1.042,0,0,1-1.4.655,1.015,1.015,0,0,1-.564-1.247.7.7,0,0,0-.205-.774q-1.925-1.929-3.837-3.872a.729.729,0,0,0-.737-.251,1.015,1.015,0,0,1-1.26-.65.578.578,0,0,0-.065-.093Zm14.329-1.4a2.472,2.472,0,0,0,.463-.261c.3-.267.58-.552.853-.843a.617.617,0,0,0-.009-.968q-2.424-2.433-4.856-4.857a.552.552,0,0,0-.864-.007q-.475.46-.911.957a.527.527,0,0,0,.042.855q2.426,2.43,4.861,4.852A2.476,2.476,0,0,0,61.458,356.314Z" transform="translate(-47.129 -340.396)"/>
</svg>
