<svg xmlns="http://www.w3.org/2000/svg">
    <path id="Tracé_61" data-name="Tracé 61" d="M405,465.5H390.232c-4.955-1.054-10.026-1.745-14.851-3.224-28.847-8.835-47.674-27.827-56.441-56.667-1.5-4.927-2.135-10.115-3.169-15.186V375.656c.609-2.984,1.225-5.968,1.82-8.959a81.571,81.571,0,0,1,66.761-64.181C399.779,299.964,406.4,294,410.1,278.8a73.5,73.5,0,0,1,5.722-16.11c12.675-24.693,32.809-39.208,60.472-42.712,19.662-2.5,37.812,2.21,53.58,13.989,23.748,17.739,34.5,41.686,31.4,71.4a73.539,73.539,0,0,1-18.93,42.1c-11.552,12.948-26.082,20.764-42.966,24.542-11.135,2.491-18.143,10.245-19.984,21.428-2.026,12.278-5.537,23.967-12.565,34.486-11.436,17.13-26.91,28.669-46.654,34.383C415.225,463.736,410.065,464.455,405,465.5Zm8.575-130.566c-.616.034-1.232.021-1.841.1-17.062,2.313-31.872,9.027-43.9,21.688-8.124,8.541-15.1,17.773-19.888,28.566a7.543,7.543,0,0,0,3.771,10.074,7.627,7.627,0,0,0,9.958-3.477c.746-1.334,1.307-2.772,2.012-4.134,6.618-12.654,15.228-23.488,27.786-30.8,7.323-4.257,15.426-5.763,23.611-7.1,4.161-.684,6.618-4.209,6.132-8.473C420.776,337.516,417.716,334.935,413.576,334.935Zm113.771-33.589a25.991,25.991,0,0,0-1.465-4.284c-3.011-5.27-9.746-5.023-13.578.643-8.7,12.9-20.744,21.346-35.218,26.4a131.295,131.295,0,0,0-25.569,11.723c-2.7,1.656-3.962,3.846-3.825,6.762a7.26,7.26,0,0,0,4.66,6.639c2.929,1.3,5.283.007,7.83-1.191,5.988-2.806,11.922-5.824,18.129-8.048,18.451-6.6,34.548-16.343,45.888-32.789A55.864,55.864,0,0,0,527.347,301.346ZM508.4,252.707c-.062-5.393-4.941-8.911-10.273-7.186-25.582,8.26-43.561,24.72-53.361,49.871a7.315,7.315,0,0,0,3.949,9.684c4.455,2.019,8.151.849,10.321-3.347.746-1.451,1.3-3,1.957-4.49,5.105-11.6,12.456-21.448,23.427-28.012,5.653-3.381,11.813-5.934,17.842-8.637C506.385,258.743,508.445,256.382,508.4,252.707ZM382.423,437.791a11.155,11.155,0,0,0,1.745-.513c7.5-3.36,15.145-6.467,22.434-10.252,3.908-2.026,7.125-5.338,10.793-7.87,7.042-4.873,12.155-11.5,16.829-18.471,2.012-3,.849-7.33-1.944-9.349a7.346,7.346,0,0,0-9.746.992c-1.321,1.417-2.43,3.032-3.7,4.51-6.679,7.843-14.276,14.66-23.406,19.484-5.2,2.751-10.711,4.934-16.124,7.268-3.956,1.7-6.337,5.126-5.667,8.452C374.3,435.314,378.07,437.88,382.423,437.791Z"/>
</svg>
