<svg xmlns="http://www.w3.org/2000/svg" width="24.683" height="24.698" viewBox="0 0 24.683 24.698">
  <g id="SC2VVu.tif" transform="translate(-315.771 -219.323)">
    <path id="Tracé_61" data-name="Tracé 61" d="M324.723,244.021h-1.482c-.5-.106-1.006-.175-1.49-.323a8.081,8.081,0,0,1-5.663-5.685c-.15-.494-.214-1.015-.318-1.524v-1.482c.061-.3.123-.6.183-.9a8.184,8.184,0,0,1,6.7-6.439,2.7,2.7,0,0,0,2.583-2.38,7.376,7.376,0,0,1,.574-1.616,7.551,7.551,0,0,1,6.067-4.285,7.209,7.209,0,0,1,5.376,1.4,7.474,7.474,0,0,1,3.15,7.164,7.378,7.378,0,0,1-1.9,4.224,7.919,7.919,0,0,1-4.311,2.462,2.5,2.5,0,0,0-2,2.15,8.6,8.6,0,0,1-1.261,3.46,8.221,8.221,0,0,1-4.681,3.45C325.749,243.844,325.231,243.916,324.723,244.021Zm.86-13.1c-.062,0-.124,0-.185.01a7.186,7.186,0,0,0-4.4,2.176,10.137,10.137,0,0,0-2,2.866.757.757,0,0,0,.378,1.011.765.765,0,0,0,1-.349c.075-.134.131-.278.2-.415a7.351,7.351,0,0,1,2.788-3.09,6.744,6.744,0,0,1,2.369-.713.734.734,0,0,0,.615-.85A.726.726,0,0,0,325.583,230.922ZM337,227.552a2.608,2.608,0,0,0-.147-.43.771.771,0,0,0-1.362.065,6.83,6.83,0,0,1-3.533,2.648,13.173,13.173,0,0,0-2.565,1.176.711.711,0,0,0-.384.678.728.728,0,0,0,.468.666.878.878,0,0,0,.786-.119c.6-.282,1.2-.584,1.819-.807a8.986,8.986,0,0,0,4.6-3.29A5.609,5.609,0,0,0,337,227.552Zm-1.9-4.88a.76.76,0,0,0-1.031-.721,8.152,8.152,0,0,0-5.354,5,.734.734,0,0,0,.4.972.719.719,0,0,0,1.035-.336c.075-.146.13-.3.2-.45a5.914,5.914,0,0,1,2.35-2.81,17,17,0,0,1,1.79-.867C334.895,223.278,335.1,223.041,335.1,222.672Zm-12.639,18.569a1.121,1.121,0,0,0,.175-.051c.753-.337,1.519-.649,2.251-1.029a10.85,10.85,0,0,0,1.083-.79,6.656,6.656,0,0,0,1.688-1.853.714.714,0,0,0-.195-.938.737.737,0,0,0-.978.1c-.133.142-.244.3-.371.452a8.052,8.052,0,0,1-2.348,1.955c-.522.276-1.075.5-1.618.729a.814.814,0,0,0-.569.848A.848.848,0,0,0,322.458,241.241Z"/>
  </g>
</svg>
