<svg xmlns="http://www.w3.org/2000/svg" width="100%" height="100%" viewBox="0 0 20.588 24.698">
  <g id="Groupe_64" data-name="Groupe 64" transform="translate(-413.346 -219.101)">
    <path id="Tracé_66" data-name="Tracé 66" d="M413.346,234.545v-1.358a1.529,1.529,0,0,0,.059-.236,8.367,8.367,0,0,1,.934-3.2,5.852,5.852,0,0,1,5.872-3.471,14.272,14.272,0,0,1,1.959.347c.366.077.436.045.439-.341,0-.144,0-.288,0-.431a1.039,1.039,0,0,0-1.134-1.128c-.637-.005-1.275.008-1.911-.007a1.225,1.225,0,0,1-.525-.132.994.994,0,0,1-.5-1.15.979.979,0,0,1,.937-.753c.771-.016,1.543-.026,2.312.006a2.933,2.933,0,0,1,2.7,2.033,7.55,7.55,0,0,1,.2,1.607c.03.371.079.432.423.317a7.857,7.857,0,0,1,2.6-.382A5.427,5.427,0,0,1,432,228.343a8.708,8.708,0,0,1,1.866,6.755,14.978,14.978,0,0,1-2.136,6.173c-.969,1.606-2.1,3.055-4.069,3.522H426.3a2.776,2.776,0,0,0-.294-.065,2.538,2.538,0,0,1-1.581-.667,1.236,1.236,0,0,0-1.566-.008,3.826,3.826,0,0,1-1.069.558,4.574,4.574,0,0,1-.734.183h-1.481c-.192-.061-.387-.117-.577-.184a5.261,5.261,0,0,1-2.25-1.666,15.089,15.089,0,0,1-3.151-6.792C413.487,235.621,413.429,235.081,413.346,234.545Z" transform="translate(0 -0.995)"/>
    <path id="Tracé_67" data-name="Tracé 67" d="M435.452,220.221a1.156,1.156,0,0,0-1.365-1.107,5.186,5.186,0,0,0-4.267,4.428,1.054,1.054,0,0,0,1.169,1.144,5.149,5.149,0,0,0,3.45-2A5.074,5.074,0,0,0,435.452,220.221Z" transform="translate(-4.586 0)" fill="#fff"/>
    <path id="Tracé_68" data-name="Tracé 68" d="M435.452,220.221a5.074,5.074,0,0,1-1.014,2.464,5.149,5.149,0,0,1-3.45,2,1.054,1.054,0,0,1-1.169-1.144,5.186,5.186,0,0,1,4.267-4.428A1.156,1.156,0,0,1,435.452,220.221Z" transform="translate(-4.586 0)"/>
  </g>
</svg>
