<svg xmlns="http://www.w3.org/2000/svg" width="23.164" height="24.698" viewBox="0 0 23.164 24.698">
  <g id="Groupe_61" data-name="Groupe 61" transform="translate(-217.222 -219.341)">
    <path id="Tracé_54" data-name="Tracé 54" d="M221.467,223.474h.021c0,1.1-.086,2.209.019,3.3a7.533,7.533,0,0,0,2.541,5.012,7.675,7.675,0,0,0,9.04.9,7.574,7.574,0,0,0,3.807-6.668c.037-1.8.006-3.6.008-5.4,0-.471-.058-.929-.556-1.135s-.847.086-1.17.406c-.687.68-1.369,1.366-2.052,2.05-.332.333-.361.336-.685.011-.683-.684-1.364-1.371-2.05-2.052a1.592,1.592,0,0,0-2.42,0c-.686.681-1.366,1.369-2.05,2.052-.322.322-.359.32-.689-.009q-1.046-1.049-2.092-2.1a1.047,1.047,0,0,0-1.152-.391c-.478.186-.522.639-.521,1.089C221.468,221.52,221.467,222.5,221.467,223.474Z" transform="translate(-0.654 0)" fill="#fff"/>
    <path id="Tracé_55" data-name="Tracé 55" d="M233.26,246.763a.8.8,0,0,1-.189-.869,7.2,7.2,0,0,1,1.212-2.232,23.88,23.88,0,0,1,6.083-5.859,7.7,7.7,0,0,1,1.542-.746c.484-.182.715-.061.917.325v.247a10.5,10.5,0,0,1-.811,1.742c-2.159,3.067-4.646,5.787-8.137,7.393Z" transform="translate(-2.44 -2.724)"/>
    <path id="Tracé_56" data-name="Tracé 56" d="M225.7,246.856a11.56,11.56,0,0,1-3.958-2.6,21.416,21.416,0,0,1-3.632-4.094,4.89,4.89,0,0,1-.869-1.851c-.093-.564.2-.861.74-.676a7.841,7.841,0,0,1,1.583.726,20.262,20.262,0,0,1,3.935,3.345,15.724,15.724,0,0,1,2.486,3.261,7.211,7.211,0,0,1,.452,1.105.646.646,0,0,1-.242.784Z" transform="translate(0 -2.817)"/>
    <path id="Tracé_57" data-name="Tracé 57" d="M229.487,246.951a1.757,1.757,0,0,1-.116-.429q-.01-3.943,0-7.885c0-.381.065-.445.448-.446s.781,0,1.171,0,.46.078.461.474c0,.833,0,1.665,0,2.5,0,1.763.005,3.526-.007,5.288a1.769,1.769,0,0,1-.163.5Z" transform="translate(-1.876 -2.912)"/>
    <path id="Tracé_58" data-name="Tracé 58" d="M221.467,223.474c0-.977,0-1.954,0-2.931,0-.45.043-.9.521-1.089a1.047,1.047,0,0,1,1.152.391q1.044,1.05,2.092,2.1c.33.33.367.331.689.009.684-.683,1.364-1.371,2.05-2.052a1.592,1.592,0,0,1,2.42,0c.686.682,1.366,1.368,2.05,2.052.324.325.353.322.685-.011.683-.685,1.365-1.371,2.052-2.05.323-.32.682-.608,1.17-.406s.556.664.556,1.135c0,1.8.03,3.6-.008,5.4a7.574,7.574,0,0,1-3.807,6.668,7.675,7.675,0,0,1-9.04-.9,7.533,7.533,0,0,1-2.541-5.012c-.1-1.09-.019-2.2-.019-3.3Z" transform="translate(-0.654 0)"/>
  </g>
</svg>
