<svg xmlns="http://www.w3.org/2000/svg">
    <path id="Tracé_54" data-name="Tracé 54" d="M221.559,254.826h.182c0,9.444-.74,18.968.16,28.326,1.633,17.016,8.972,31.433,21.814,43.033,21.139,19.085,53.319,22.569,77.616,7.717,21.284-13.016,32.166-32.333,32.688-57.247.319-15.448.051-30.9.065-46.358,0-4.043-.5-7.978-4.777-9.742-4.2-1.735-7.274.74-10.047,3.485-5.9,5.836-11.753,11.724-17.618,17.6-2.853,2.86-3.1,2.882-5.88.094-5.865-5.873-11.709-11.767-17.6-17.618-6.41-6.374-14.359-6.374-20.776.015-5.887,5.851-11.724,11.753-17.6,17.618-2.766,2.766-3.085,2.751-5.916-.08q-8.984-9.005-17.959-18.01c-2.759-2.766-5.945-4.893-9.894-3.354-4.1,1.6-4.479,5.488-4.472,9.35C221.574,238.05,221.559,246.434,221.559,254.826Z" transform="translate(26.494 0)" fill="#fff"/>
    <path id="Tracé_55" data-name="Tracé 55" d="M235.076,321.015c-2.17-2.134-2.454-4.6-1.626-7.463,2.076-7.165,6.083-13.27,10.41-19.164a205.024,205.024,0,0,1,52.223-50.3,66.142,66.142,0,0,1,13.241-6.4c4.16-1.561,6.141-.523,7.876,2.787v2.12c-2.28,5.016-3.847,10.533-6.962,14.954-18.533,26.329-39.89,49.682-69.863,63.468Z" transform="translate(98.892 110.371)"/>
    <path id="Tracé_56" data-name="Tracé 56" d="M290,317.219c-13.248-4.515-23.847-13.139-33.981-22.322-11.658-10.562-22.518-21.9-31.186-35.149-3.23-4.929-6.468-9.9-7.463-15.891-.8-4.842,1.7-7.39,6.352-5.807a67.323,67.323,0,0,1,13.589,6.236c12.718,7.811,23.491,18,33.785,28.718,8.181,8.515,15.615,17.633,21.342,28a61.909,61.909,0,0,1,3.876,9.488,5.542,5.542,0,0,1-2.076,6.729Z" transform="translate(0 114.167)"/>
    <path id="Tracé_57" data-name="Tracé 57" d="M230.4,313.4a15.088,15.088,0,0,1-.995-3.68q-.087-33.854-.036-67.693c0-3.274.559-3.818,3.847-3.826q5.031-.022,10.054-.007c3.3.015,3.949.668,3.956,4.073.015,7.15,0,14.293,0,21.437,0,15.135.044,30.271-.058,45.4-.015,1.437-.915,2.867-1.4,4.3Z" transform="translate(76.015 117.985)"/>
    <path id="Tracé_58" data-name="Tracé 58" d="M221.559,254.826c0-8.392.015-16.776-.007-25.168-.007-3.862.37-7.753,4.472-9.35,3.949-1.539,7.136.588,9.894,3.354q8.962,9.016,17.959,18.01c2.831,2.831,3.15,2.846,5.916.08,5.873-5.865,11.709-11.767,17.6-17.618,6.417-6.388,14.366-6.388,20.776-.015,5.887,5.851,11.731,11.746,17.6,17.618,2.78,2.788,3.027,2.766,5.88-.094,5.865-5.88,11.716-11.767,17.618-17.6,2.773-2.744,5.851-5.219,10.047-3.485,4.276,1.764,4.777,5.7,4.777,9.742-.014,15.455.254,30.91-.065,46.358-.523,24.914-11.4,44.231-32.688,57.247-24.3,14.853-56.477,11.368-77.616-7.717-12.842-11.6-20.181-26.017-21.814-43.033-.9-9.357-.16-18.881-.16-28.326Z" transform="translate(26.494 0)"/>
</svg>
