<svg xmlns="http://www.w3.org/2000/svg">
    <path id="Tracé_41" data-name="Tracé 41" d="M222.916,396.359h-9.531c-3.964-1.161-8.077-1.963-11.861-3.559-14.911-6.279-26.54-16.867-36.176-29.522a204.807,204.807,0,0,1-16.9-25.828c-10.55-19.369-17.556-39.87-16.694-62.379,1.169-30.474,22.794-47.041,49.026-47.52,24.1-.442,48.225-.172,72.337-.03a60.279,60.279,0,0,1,13.532,1.461c18.95,4.5,31.68,15.7,36.3,35.082,2.548,10.7,2.165,21.482-.007,32.182-5.5,27.155-18.043,50.825-35.981,71.723-8.662,10.085-18.515,18.845-30.856,24.232C231.908,394.036,227.322,395,222.916,396.359Zm-14.844-84.348a9.641,9.641,0,0,0-9.681-9.876,9.847,9.847,0,0,0-10.011,9.658,10.346,10.346,0,0,0,9.808,10.033A9.981,9.981,0,0,0,208.073,312.011Zm30.219-9.876a9.653,9.653,0,0,0-10.07,9.486,10.021,10.021,0,0,0,9.786,10.2,10.344,10.344,0,0,0,9.906-9.928A9.893,9.893,0,0,0,238.292,302.135ZM183.2,267.158a9.737,9.737,0,1,0-19.474.082,9.739,9.739,0,1,0,19.474-.082Zm44.666-.172a9.728,9.728,0,1,0-19.452.427,9.73,9.73,0,1,0,19.452-.427Zm44.688.262a9.741,9.741,0,1,0-19.482-.1,9.742,9.742,0,1,0,19.482.1Zm-63.72,88.769c-.03,6.234,3.6,10.415,9.156,10.52a9.762,9.762,0,0,0,9.688-9.8c-.022-5.852-3.851-9.861-9.471-9.9C212.718,346.808,208.859,350.585,208.837,356.017Z" transform="translate(0 60.148)"/>
    <path id="Tracé_42" data-name="Tracé 42" d="M146.164,218.044c-7.733-.045-12.146,4.825-11.479,11.382a51.784,51.784,0,0,0,9.464,24.989c9.5,13.45,22.539,21.175,38.821,23.236a10.1,10.1,0,0,0,11.209-11.367c-2-13.974-7.973-25.873-18.71-35.134C166.694,223.582,156.586,218.943,146.164,218.044Zm117.49,10.43c-.075-6.152-4.428-10.6-10.213-10.4-9.149.292-17.459,3.552-24.907,8.594-13.63,9.239-21.8,22.089-24.285,38.506-1.139,7.523,4.7,13.54,12.184,12.311,15.263-2.518,27.679-9.756,36.888-22.254A53.1,53.1,0,0,0,263.653,228.474Z" transform="translate(19.042 0)" fill="#fff"/>
    <path id="Tracé_43" data-name="Tracé 43" d="M158.944,247.17a9.981,9.981,0,0,1-9.883,9.816,10.346,10.346,0,0,1-9.808-10.033,9.847,9.847,0,0,1,10.011-9.658A9.641,9.641,0,0,1,158.944,247.17Z" transform="translate(49.129 124.989)" fill="#fff"/>
    <path id="Tracé_44" data-name="Tracé 44" d="M154.641,237.3a9.893,9.893,0,0,1,9.621,9.756,10.344,10.344,0,0,1-9.906,9.928,10.021,10.021,0,0,1-9.786-10.2A9.653,9.653,0,0,1,154.641,237.3Z" transform="translate(83.651 124.988)" fill="#fff"/>
    <path id="Tracé_45" data-name="Tracé 45" d="M155.436,241.067a9.739,9.739,0,1,1-19.474.082,9.737,9.737,0,1,1,19.474-.082Z" transform="translate(27.767 86.24)" fill="#fff"/>
    <path id="Tracé_46" data-name="Tracé 46" d="M161.379,240.9a9.73,9.73,0,1,1-19.452.427,9.728,9.728,0,1,1,19.452-.427Z" transform="translate(66.49 86.234)" fill="#fff"/>
    <path id="Tracé_47" data-name="Tracé 47" d="M167.368,241.157a9.742,9.742,0,1,1-19.482-.1,9.741,9.741,0,1,1,19.482.1Z" transform="translate(105.189 86.24)" fill="#fff"/>
    <path id="Tracé_48" data-name="Tracé 48" d="M141.982,252.439c.023-5.432,3.881-9.209,9.374-9.179,5.62.037,9.449,4.046,9.471,9.9a9.762,9.762,0,0,1-9.688,9.8C145.586,262.854,141.952,258.673,141.982,252.439Z" transform="translate(66.855 163.726)" fill="#fff"/>
    <path id="Tracé_49" data-name="Tracé 49" d="M146.164,218.044c10.423.9,20.531,5.537,29.3,13.105,10.737,9.261,16.709,21.16,18.71,35.134a10.1,10.1,0,0,1-11.209,11.367c-16.282-2.061-29.32-9.786-38.821-23.236a51.784,51.784,0,0,1-9.464-24.989C134.017,222.87,138.431,218,146.164,218.044Z" transform="translate(19.042 0)"/>
    <path id="Tracé_50" data-name="Tracé 50" d="M203.439,228.454a53.1,53.1,0,0,1-10.333,26.757c-9.209,12.5-21.625,19.736-36.888,22.254-7.485,1.229-13.323-4.788-12.184-12.311,2.488-16.417,10.655-29.268,24.285-38.506,7.448-5.043,15.758-8.3,24.907-8.594C199.01,217.859,203.364,222.3,203.439,228.454Z" transform="translate(79.257 0.021)"/>
</svg>
