<svg xmlns="http://www.w3.org/2000/svg" width="17.922" height="24.698" viewBox="0 0 17.922 24.698">
  <g id="Groupe_59" data-name="Groupe 59" transform="translate(-131.686 -218.044)">
    <path id="Tracé_41" data-name="Tracé 41" d="M141.134,244.817h-.987a11.319,11.319,0,0,1-1.229-.369,9.256,9.256,0,0,1-3.747-3.058,21.214,21.214,0,0,1-1.75-2.675,12.393,12.393,0,0,1-1.729-6.461,4.883,4.883,0,0,1,5.078-4.922c2.5-.046,4.995-.018,7.492,0a6.242,6.242,0,0,1,1.4.151,4.66,4.66,0,0,1,3.76,3.634,7.667,7.667,0,0,1,0,3.333,16.236,16.236,0,0,1-3.727,7.428,9.022,9.022,0,0,1-3.2,2.51A12.94,12.94,0,0,1,141.134,244.817Zm-1.537-8.736a1,1,0,0,0-1-1.023,1.02,1.02,0,0,0-1.037,1,1.072,1.072,0,0,0,1.016,1.039A1.034,1.034,0,0,0,139.6,236.081Zm3.13-1.023a1,1,0,0,0-1.043.982A1.038,1.038,0,0,0,142.7,237.1a1.071,1.071,0,0,0,1.026-1.028A1.025,1.025,0,0,0,142.727,235.058Zm-5.706-3.623a1.009,1.009,0,1,0-2.017.009,1.009,1.009,0,1,0,2.017-.009Zm4.626-.018a1.008,1.008,0,1,0-2.015.044,1.008,1.008,0,1,0,2.015-.044Zm4.628.027a1.009,1.009,0,1,0-2.018-.01,1.009,1.009,0,1,0,2.018.01Zm-6.6,9.194a.974.974,0,0,0,.948,1.09,1.011,1.011,0,0,0,1-1.015.96.96,0,0,0-.981-1.025A.919.919,0,0,0,139.676,240.638Z" transform="translate(0 -2.075)"/>
    <path id="Tracé_42" data-name="Tracé 42" d="M135.814,218.044a1.055,1.055,0,0,0-1.189,1.179,5.364,5.364,0,0,0,.98,2.588,5.589,5.589,0,0,0,4.021,2.407,1.046,1.046,0,0,0,1.161-1.177,5.7,5.7,0,0,0-1.938-3.639A5.39,5.39,0,0,0,135.814,218.044Zm12.169,1.08a1.026,1.026,0,0,0-1.058-1.077,4.848,4.848,0,0,0-2.58.89,5.656,5.656,0,0,0-2.515,3.988,1.082,1.082,0,0,0,1.262,1.275,5.716,5.716,0,0,0,3.821-2.3A5.5,5.5,0,0,0,147.983,219.124Z" transform="translate(-0.657 0)" fill="#fff"/>
    <path id="Tracé_43" data-name="Tracé 43" d="M141.291,238.317a1.034,1.034,0,0,1-1.024,1.017,1.072,1.072,0,0,1-1.016-1.039,1.02,1.02,0,0,1,1.037-1A1,1,0,0,1,141.291,238.317Z" transform="translate(-1.694 -4.311)" fill="#fff"/>
    <path id="Tracé_44" data-name="Tracé 44" d="M145.612,237.294a1.025,1.025,0,0,1,1,1.01,1.071,1.071,0,0,1-1.026,1.028,1.038,1.038,0,0,1-1.014-1.056A1,1,0,0,1,145.612,237.294Z" transform="translate(-2.885 -4.311)" fill="#fff"/>
    <path id="Tracé_45" data-name="Tracé 45" d="M137.979,232.335a1.009,1.009,0,1,1-2.017.009,1.009,1.009,0,1,1,2.017-.009Z" transform="translate(-0.958 -2.974)" fill="#fff"/>
    <path id="Tracé_46" data-name="Tracé 46" d="M143.941,232.317a1.008,1.008,0,1,1-2.015.044,1.008,1.008,0,1,1,2.015-.044Z" transform="translate(-2.293 -2.974)" fill="#fff"/>
    <path id="Tracé_47" data-name="Tracé 47" d="M149.9,232.344a1.009,1.009,0,1,1-2.018-.01,1.009,1.009,0,1,1,2.018.01Z" transform="translate(-3.628 -2.974)" fill="#fff"/>
    <path id="Tracé_48" data-name="Tracé 48" d="M141.982,244.211a.919.919,0,0,1,.971-.951.96.96,0,0,1,.981,1.025,1.011,1.011,0,0,1-1,1.015A.974.974,0,0,1,141.982,244.211Z" transform="translate(-2.306 -5.647)" fill="#fff"/>
    <path id="Tracé_49" data-name="Tracé 49" d="M135.814,218.044a5.39,5.39,0,0,1,3.035,1.357,5.7,5.7,0,0,1,1.938,3.639,1.046,1.046,0,0,1-1.161,1.177,5.589,5.589,0,0,1-4.021-2.407,5.364,5.364,0,0,1-.98-2.588A1.055,1.055,0,0,1,135.814,218.044Z" transform="translate(-0.657 0)"/>
    <path id="Tracé_50" data-name="Tracé 50" d="M150.059,219.125a5.5,5.5,0,0,1-1.07,2.771,5.716,5.716,0,0,1-3.821,2.3,1.082,1.082,0,0,1-1.262-1.275,5.656,5.656,0,0,1,2.515-3.988,4.848,4.848,0,0,1,2.58-.89A1.026,1.026,0,0,1,150.059,219.125Z" transform="translate(-2.733 -0.001)"/>
  </g>
</svg>
