<svg xmlns="http://www.w3.org/2000/svg" width="1026.306" height="1257.426" viewBox="0 0 1026.306 1257.426">
  <g id="Groupe_116" data-name="Groupe 116" transform="translate(-175.005 -96.994)">
    <g id="_x35_" transform="translate(825.122 741.018) rotate(40)">
      <g id="Groupe_104" data-name="Groupe 104" transform="translate(45.261 0)">
        <path id="Tracé_129" data-name="Tracé 129" d="M75.594,434.261,87.3,432.793a11.086,11.086,0,0,0,9.621-12.385L43.336,2,9.616,6.232,63.2,424.634A11.092,11.092,0,0,0,75.594,434.261Z" transform="translate(2.27 9.889)" fill="#ededed"/>
        <path id="Tracé_130" data-name="Tracé 130" d="M84.041,456.125a22.987,22.987,0,0,1-22.749-20.117L7.711,17.631a11.883,11.883,0,0,1,10.311-13.3L51.742.1a11.871,11.871,0,0,1,13.27,10.281L118.6,428.788a22.969,22.969,0,0,1-19.938,25.685l-11.7,1.468A22.972,22.972,0,0,1,84.041,456.125ZM32.8,26.432,84.778,432.259l10.133-1.272L42.935,25.161Z" transform="translate(-7.616 0)"/>
      </g>
      <g id="Groupe_105" data-name="Groupe 105" transform="translate(32.763 220.658)">
        <path id="Tracé_131" data-name="Tracé 131" d="M5.513,49.092,21.618,266.631a49.9,49.9,0,0,0,49.8,46.747H208.076a49.9,49.9,0,0,0,49.8-46.753L273.952,48.991s-56.618-26.719-134.22.048S5.513,49.092,5.513,49.092Z" transform="translate(-5.513 -37.13)" fill="#60d0f3"/>
      </g>
      <g id="Groupe_106" data-name="Groupe 106" transform="translate(14.478 133.38)">
        <path id="Tracé_132" data-name="Tracé 132" d="M145.11,24.444v1.4H4.543l-.107-1.4Z" transform="translate(7.448 -12.558)" fill="#ededed"/>
        <path id="Tracé_133" data-name="Tracé 133" d="M154.994,47.612H14.427A11.887,11.887,0,0,1,2.577,36.636l-.107-1.4A11.888,11.888,0,0,1,14.32,22.444H154.988A11.89,11.89,0,0,1,166.874,34.33v1.4A11.881,11.881,0,0,1,154.994,47.612Z" transform="translate(-2.436 -22.444)"/>
      </g>
      <g id="Groupe_107" data-name="Groupe 107" transform="translate(155.15 133.38)">
        <path id="Tracé_134" data-name="Tracé 134" d="M168.775,24.444l-.107,1.4H28.107v-1.4Z" transform="translate(-16.221 -12.558)" fill="#ededed"/>
        <path id="Tracé_135" data-name="Tracé 135" d="M178.559,47.612H37.993A11.89,11.89,0,0,1,26.107,35.726v-1.4A11.89,11.89,0,0,1,37.993,22.444H178.666a11.888,11.888,0,0,1,11.85,12.795l-.107,1.4A11.887,11.887,0,0,1,178.559,47.612Z" transform="translate(-26.107 -22.444)"/>
      </g>
      <g id="Groupe_108" data-name="Groupe 108" transform="translate(26.363 146.663)" opacity="0.1">
        <path id="Tracé_136" data-name="Tracé 136" d="M248.129,24.679,225.671,328.086a49.9,49.9,0,0,1-49.8,46.747H76.648a49.9,49.9,0,0,1-49.8-46.753L4.436,24.679Z" transform="translate(-4.436 -24.679)" fill="#fff"/>
      </g>
      <g id="Groupe_109" data-name="Groupe 109" transform="translate(15.743 135.936)">
        <path id="Tracé_137" data-name="Tracé 137" d="M222.243,394.475H85.587a60.741,60.741,0,0,1-60.5-56.8L2.678,34.391a10.726,10.726,0,0,1,10.7-11.517H294.509a10.734,10.734,0,0,1,10.7,11.517l-22.464,303.4A60.716,60.716,0,0,1,222.243,394.475ZM24.922,44.328,46.483,336.206a39.272,39.272,0,0,0,39.1,36.816H222.243a39.256,39.256,0,0,0,39.1-36.7l21.614-292H24.922Z" transform="translate(-2.649 -22.874)"/>
      </g>
      <g id="Groupe_110" data-name="Groupe 110" transform="translate(11.886 91.691)">
        <path id="Tracé_138" data-name="Tracé 138" d="M312.247,43.1v27.3H2V43.1a27.682,27.682,0,0,1,27.729-27.67H284.577A27.67,27.67,0,0,1,312.247,43.1Z" transform="translate(-2 -15.429)" fill="#ededed"/>
      </g>
      <g id="Groupe_111" data-name="Groupe 111" transform="translate(69.93 91.649)">
        <path id="Tracé_139" data-name="Tracé 139" d="M205.926,43.092v27.3H11.767v-27.3c0-15.285,7.755-27.67,17.353-27.67H188.609C198.171,15.422,205.926,27.807,205.926,43.092Z" transform="translate(-11.767 -15.422)" fill="#fcfafb"/>
      </g>
      <g id="Groupe_112" data-name="Groupe 112" transform="translate(0 79.805)">
        <path id="Tracé_140" data-name="Tracé 140" d="M0,80.286v-27.3A39.608,39.608,0,0,1,39.562,13.429H294.41a39.635,39.635,0,0,1,39.615,39.562v27.3a11.89,11.89,0,0,1-11.886,11.886H11.886A11.89,11.89,0,0,1,0,80.286Zm310.247-27.3A15.835,15.835,0,0,0,294.4,37.195H39.562a15.816,15.816,0,0,0-15.79,15.79v15.41H310.247Z" transform="translate(0 -13.429)"/>
      </g>
      <g id="Groupe_113" data-name="Groupe 113" transform="translate(184.603 395.484)">
        <path id="Tracé_141" data-name="Tracé 141" d="M51.976,114.085h5.711A20.913,20.913,0,0,0,78.6,93.172V87.461A20.913,20.913,0,0,0,57.687,66.548H51.976A20.913,20.913,0,0,0,31.063,87.461v5.711A20.913,20.913,0,0,0,51.976,114.085Z" transform="translate(-31.063 -66.548)" fill="#56c6e9"/>
      </g>
      <g id="Groupe_114" data-name="Groupe 114" transform="translate(94.902 323.13)">
        <path id="Tracé_142" data-name="Tracé 142" d="M36.882,101.91h5.711A20.913,20.913,0,0,0,63.506,81V75.286A20.913,20.913,0,0,0,42.593,54.373H36.882A20.913,20.913,0,0,0,15.969,75.286V81A20.913,20.913,0,0,0,36.882,101.91Z" transform="translate(-15.969 -54.373)" fill="#56c6e9"/>
      </g>
      <g id="Groupe_115" data-name="Groupe 115" transform="translate(196.489 268.158)">
        <path id="Tracé_143" data-name="Tracé 143" d="M53.976,92.66h5.711A20.913,20.913,0,0,0,80.6,71.747V66.036A20.913,20.913,0,0,0,59.687,45.123H53.976A20.913,20.913,0,0,0,33.063,66.036v5.711A20.909,20.909,0,0,0,53.976,92.66Z" transform="translate(-33.063 -45.123)" fill="#56c6e9"/>
      </g>
    </g>
    <g id="_x35_2" data-name="_x35_" transform="matrix(0.899, -0.438, 0.438, 0.899, 141.108, 200.311)">
      <g id="Groupe_68" data-name="Groupe 68" transform="translate(46.796 0)">
        <path id="Tracé_84" data-name="Tracé 84" d="M77.831,448.919l12.1-1.518a11.462,11.462,0,0,0,9.948-12.8L44.479,2,9.616,6.376l55.4,432.589A11.468,11.468,0,0,0,77.831,448.919Z" transform="translate(2.673 10.292)" fill="#ededed"/>
        <path id="Tracé_85" data-name="Tracé 85" d="M86.633,471.592a23.767,23.767,0,0,1-23.521-20.8L7.714,18.229A12.286,12.286,0,0,1,18.375,4.478L53.238.1a12.273,12.273,0,0,1,13.72,10.63l55.4,432.6a23.747,23.747,0,0,1-20.614,26.556L89.65,471.4A23.749,23.749,0,0,1,86.633,471.592ZM33.656,27.329,87.395,446.916,97.871,445.6,44.132,26.014Z" transform="translate(-7.616 0)"/>
      </g>
      <g id="Groupe_69" data-name="Groupe 69" transform="translate(33.874 228.14)">
        <path id="Tracé_86" data-name="Tracé 86" d="M5.513,49.5,22.164,274.413a51.6,51.6,0,0,0,51.49,48.332h141.29a51.593,51.593,0,0,0,51.49-48.338L283.055,49.393s-58.538-27.625-138.771.049S5.513,49.5,5.513,49.5Z" transform="translate(-5.513 -37.13)" fill="#ff8b8b"/>
      </g>
      <g id="Groupe_70" data-name="Groupe 70" transform="translate(14.969 137.903)">
        <path id="Tracé_87" data-name="Tracé 87" d="M149.88,24.444v1.444H4.547l-.111-1.444Z" transform="translate(7.851 -12.155)" fill="#ededed"/>
        <path id="Tracé_88" data-name="Tracé 88" d="M160.167,48.465H14.834A12.29,12.29,0,0,1,2.582,37.117l-.111-1.444A12.291,12.291,0,0,1,14.723,22.444H160.161A12.293,12.293,0,0,1,172.45,34.733v1.444A12.284,12.284,0,0,1,160.167,48.465Z" transform="translate(-2.436 -22.444)"/>
      </g>
      <g id="Groupe_71" data-name="Groupe 71" transform="translate(160.411 137.903)">
        <path id="Tracé_89" data-name="Tracé 89" d="M173.544,24.444l-.111,1.444H28.107V24.444Z" transform="translate(-15.818 -12.155)" fill="#ededed"/>
        <path id="Tracé_90" data-name="Tracé 90" d="M183.729,48.465H38.4A12.293,12.293,0,0,1,26.107,36.177V34.733A12.293,12.293,0,0,1,38.4,22.444H183.839a12.291,12.291,0,0,1,12.252,13.229l-.111,1.444A12.29,12.29,0,0,1,183.729,48.465Z" transform="translate(-26.107 -22.444)"/>
      </g>
      <g id="Groupe_72" data-name="Groupe 72" transform="translate(27.256 151.636)" opacity="0.1">
        <path id="Tracé_91" data-name="Tracé 91" d="M256.392,24.679l-23.22,313.7a51.6,51.6,0,0,1-51.49,48.332H79.1a51.593,51.593,0,0,1-51.49-48.338L4.436,24.679Z" transform="translate(-4.436 -24.679)" fill="#fff"/>
      </g>
      <g id="Groupe_73" data-name="Groupe 73" transform="translate(16.277 140.545)">
        <path id="Tracé_92" data-name="Tracé 92" d="M229.69,407.076H88.4a62.8,62.8,0,0,1-62.556-58.728L2.679,34.782a11.089,11.089,0,0,1,11.06-11.908H304.405a11.1,11.1,0,0,1,11.06,11.908L292.239,348.471A62.775,62.775,0,0,1,229.69,407.076ZM25.678,45.055,47.97,346.83A40.6,40.6,0,0,0,88.4,384.895H229.69a40.587,40.587,0,0,0,40.424-37.948l22.347-301.9H25.678Z" transform="translate(-2.649 -22.874)"/>
      </g>
      <g id="Groupe_74" data-name="Groupe 74" transform="translate(12.289 94.8)">
        <path id="Tracé_93" data-name="Tracé 93" d="M322.767,44.037V72.258H2V44.037A28.621,28.621,0,0,1,30.67,15.429H294.159A28.608,28.608,0,0,1,322.767,44.037Z" transform="translate(-2 -15.429)" fill="#ededed"/>
      </g>
      <g id="Groupe_75" data-name="Groupe 75" transform="translate(72.301 94.757)">
        <path id="Tracé_94" data-name="Tracé 94" d="M212.51,44.03V72.251H11.767V44.03c0-15.8,8.018-28.608,17.942-28.608h164.9C204.492,15.422,212.51,28.227,212.51,44.03Z" transform="translate(-11.767 -15.422)" fill="#fcfafb"/>
      </g>
      <g id="Groupe_76" data-name="Groupe 76" transform="translate(0 82.511)">
        <path id="Tracé_95" data-name="Tracé 95" d="M0,82.553V54.332a40.951,40.951,0,0,1,40.9-40.9H304.393a40.978,40.978,0,0,1,40.958,40.9V82.553a12.293,12.293,0,0,1-12.289,12.289H12.289A12.293,12.293,0,0,1,0,82.553ZM320.767,54.326A16.372,16.372,0,0,0,304.386,38H40.9A16.353,16.353,0,0,0,24.578,54.326V70.258h296.19Z" transform="translate(0 -13.429)"/>
      </g>
      <g id="Groupe_77" data-name="Groupe 77" transform="translate(190.863 408.895)">
        <path id="Tracé_96" data-name="Tracé 96" d="M52.685,115.7h5.9A21.622,21.622,0,0,0,80.212,94.075v-5.9A21.622,21.622,0,0,0,58.59,66.548h-5.9A21.622,21.622,0,0,0,31.063,88.17v5.9A21.622,21.622,0,0,0,52.685,115.7Z" transform="translate(-31.063 -66.548)" fill="#f58181"/>
      </g>
      <g id="Groupe_78" data-name="Groupe 78" transform="translate(98.12 334.087)">
        <path id="Tracé_97" data-name="Tracé 97" d="M37.591,103.522h5.9A21.622,21.622,0,0,0,65.118,81.9V76A21.622,21.622,0,0,0,43.5,54.373h-5.9A21.622,21.622,0,0,0,15.969,76v5.9A21.622,21.622,0,0,0,37.591,103.522Z" transform="translate(-15.969 -54.373)" fill="#f58181"/>
      </g>
      <g id="Groupe_79" data-name="Groupe 79" transform="translate(203.152 277.251)">
        <path id="Tracé_98" data-name="Tracé 98" d="M54.685,94.272h5.9A21.622,21.622,0,0,0,82.212,72.65v-5.9A21.622,21.622,0,0,0,60.59,45.123h-5.9A21.622,21.622,0,0,0,33.063,66.745v5.9A21.618,21.618,0,0,0,54.685,94.272Z" transform="translate(-33.063 -45.123)" fill="#f58181"/>
      </g>
    </g>
    <g id="_x35_3" data-name="_x35_" transform="translate(989.803 1081.77) rotate(60)">
      <g id="Groupe_68-2" data-name="Groupe 68" transform="translate(23.292 0)">
        <path id="Tracé_84-2" data-name="Tracé 84" d="M43.569,224.449l6.025-.755a5.7,5.7,0,0,0,4.951-6.373L26.969,2,9.616,4.179,37.193,219.495A5.708,5.708,0,0,0,43.569,224.449Z" transform="translate(-3.499 4.118)" fill="#ededed"/>
        <path id="Tracé_85-2" data-name="Tracé 85" d="M46.946,234.73a11.83,11.83,0,0,1-11.707-10.352L7.665,9.073a6.115,6.115,0,0,1,5.306-6.844L30.324.051a6.109,6.109,0,0,1,6.829,5.291L64.73,220.661a11.82,11.82,0,0,1-10.261,13.218l-6.022.755A11.821,11.821,0,0,1,46.946,234.73ZM20.577,13.6,47.325,222.447l5.214-.654L25.791,12.948Z" transform="translate(-7.616 0)"/>
      </g>
      <g id="Groupe_69-2" data-name="Groupe 69" transform="translate(16.86 113.554)">
        <path id="Tracé_86-2" data-name="Tracé 86" d="M5.513,43.286,13.8,155.235a25.681,25.681,0,0,0,25.628,24.057h70.325a25.68,25.68,0,0,0,25.629-24.06l8.273-112s-29.136-13.75-69.072.024S5.513,43.286,5.513,43.286Z" transform="translate(-5.513 -37.13)" fill="#ff8b8b"/>
      </g>
      <g id="Groupe_70-2" data-name="Groupe 70" transform="translate(7.451 68.64)">
        <path id="Tracé_87-2" data-name="Tracé 87" d="M76.829,24.444v.719H4.491l-.055-.719Z" transform="translate(1.68 -18.327)" fill="#ededed"/>
        <path id="Tracé_88-2" data-name="Tracé 88" d="M80.945,35.4H8.607a6.117,6.117,0,0,1-6.1-5.649l-.055-.719a6.118,6.118,0,0,1,6.1-6.585h72.39a6.119,6.119,0,0,1,6.117,6.117v.719A6.114,6.114,0,0,1,80.945,35.4Z" transform="translate(-2.436 -22.444)"/>
      </g>
      <g id="Groupe_71-2" data-name="Groupe 71" transform="translate(79.843 68.64)">
        <path id="Tracé_89-2" data-name="Tracé 89" d="M100.5,24.444l-.055.719H28.107v-.719Z" transform="translate(-21.99 -18.327)" fill="#ededed"/>
        <path id="Tracé_90-2" data-name="Tracé 90" d="M104.561,35.4H32.224a6.119,6.119,0,0,1-6.117-6.117v-.719a6.119,6.119,0,0,1,6.117-6.117h72.393a6.118,6.118,0,0,1,6.1,6.585l-.055.719A6.117,6.117,0,0,1,104.561,35.4Z" transform="translate(-26.107 -22.444)"/>
      </g>
      <g id="Groupe_72-2" data-name="Groupe 72" transform="translate(13.567 75.475)" opacity="0.1">
        <path id="Tracé_91-2" data-name="Tracé 91" d="M129.844,24.679,118.287,180.817a25.681,25.681,0,0,1-25.629,24.057H41.6a25.68,25.68,0,0,1-25.628-24.06L4.436,24.679Z" transform="translate(-4.436 -24.679)" fill="#fff"/>
      </g>
      <g id="Groupe_73-2" data-name="Groupe 73" transform="translate(8.102 69.955)">
        <path id="Tracé_92-2" data-name="Tracé 92" d="M115.656,214.106H45.33a31.258,31.258,0,0,1-31.136-29.231L2.664,28.8a5.52,5.52,0,0,1,5.5-5.927H152.845a5.524,5.524,0,0,1,5.5,5.927l-11.56,156.135A31.246,31.246,0,0,1,115.656,214.106ZM14.111,33.914l11.1,150.2A20.21,20.21,0,0,0,45.33,203.066h70.325a20.2,20.2,0,0,0,20.12-18.888L146.9,33.911H14.111Z" transform="translate(-2.649 -22.874)"/>
      </g>
      <g id="Groupe_74-2" data-name="Groupe 74" transform="translate(6.117 47.186)">
        <path id="Tracé_93-2" data-name="Tracé 93" d="M161.658,29.668V43.715H2V29.668A14.246,14.246,0,0,1,16.27,15.429H147.419A14.239,14.239,0,0,1,161.658,29.668Z" transform="translate(-2 -15.429)" fill="#ededed"/>
      </g>
      <g id="Groupe_75-2" data-name="Groupe 75" transform="translate(35.987 47.164)">
        <path id="Tracé_94-2" data-name="Tracé 94" d="M111.684,29.661V43.708H11.767V29.661c0-7.866,3.991-14.239,8.93-14.239h82.075C107.693,15.422,111.684,21.8,111.684,29.661Z" transform="translate(-11.767 -15.422)" fill="#fcfafb"/>
      </g>
      <g id="Groupe_76-2" data-name="Groupe 76" transform="translate(0 41.069)">
        <path id="Tracé_95-2" data-name="Tracé 95" d="M0,47.835V33.788A20.383,20.383,0,0,1,20.359,13.429H151.508a20.4,20.4,0,0,1,20.387,20.359V47.835a6.119,6.119,0,0,1-6.117,6.117H6.117A6.119,6.119,0,0,1,0,47.835Zm159.658-14.05a8.149,8.149,0,0,0-8.153-8.126H20.359a8.139,8.139,0,0,0-8.126,8.126v7.93H159.658Z" transform="translate(0 -13.429)"/>
      </g>
      <g id="Groupe_77-2" data-name="Groupe 77" transform="translate(95 203.523)">
        <path id="Tracé_96-2" data-name="Tracé 96" d="M41.825,91.011h2.939A10.762,10.762,0,0,0,55.526,80.249V77.31A10.762,10.762,0,0,0,44.764,66.548H41.825A10.762,10.762,0,0,0,31.063,77.31v2.939A10.762,10.762,0,0,0,41.825,91.011Z" transform="translate(-31.063 -66.548)" fill="#f58181"/>
      </g>
      <g id="Groupe_78-2" data-name="Groupe 78" transform="translate(48.838 166.288)">
        <path id="Tracé_97-2" data-name="Tracé 97" d="M26.731,78.836H29.67A10.762,10.762,0,0,0,40.432,68.074V65.135A10.762,10.762,0,0,0,29.67,54.373H26.731A10.762,10.762,0,0,0,15.969,65.135v2.939A10.762,10.762,0,0,0,26.731,78.836Z" transform="translate(-15.969 -54.373)" fill="#f58181"/>
      </g>
      <g id="Groupe_79-2" data-name="Groupe 79" transform="translate(101.116 137.999)">
        <path id="Tracé_98-2" data-name="Tracé 98" d="M43.825,69.586h2.939A10.762,10.762,0,0,0,57.526,58.824V55.885A10.762,10.762,0,0,0,46.764,45.123H43.825A10.762,10.762,0,0,0,33.063,55.885v2.939A10.76,10.76,0,0,0,43.825,69.586Z" transform="translate(-33.063 -45.123)" fill="#f58181"/>
      </g>
    </g>
    <g id="_x35_4" data-name="_x35_" transform="translate(141.108 981.119) rotate(-30)">
      <g id="Groupe_80" data-name="Groupe 80" transform="translate(39.141 0)">
        <path id="Tracé_99" data-name="Tracé 99" d="M66.673,375.814,76.8,374.544a9.587,9.587,0,0,0,8.321-10.71L38.776,2,9.616,5.66,55.957,367.488A9.592,9.592,0,0,0,66.673,375.814Z" transform="translate(0.663 8.281)" fill="#ededed"/>
        <path id="Tracé_100" data-name="Tracé 100" d="M73.708,394.451a19.879,19.879,0,0,1-19.673-17.4L7.7,15.247a10.276,10.276,0,0,1,8.917-11.5L45.775.086A10.266,10.266,0,0,1,57.251,8.977L103.593,370.81A19.863,19.863,0,0,1,86.35,393.022l-10.119,1.269A19.867,19.867,0,0,1,73.708,394.451ZM29.4,22.858,74.345,373.812l8.763-1.1L38.159,21.759Z" transform="translate(-7.616 0)"/>
      </g>
      <g id="Groupe_81" data-name="Groupe 81" transform="translate(28.333 190.822)">
        <path id="Tracé_101" data-name="Tracé 101" d="M5.513,47.475,19.441,235.6a43.156,43.156,0,0,0,43.067,40.426H180.686a43.153,43.153,0,0,0,43.067-40.431l13.9-188.207s-48.962-23.106-116.071.041S5.513,47.475,5.513,47.475Z" transform="translate(-5.513 -37.13)" fill="#c00"/>
      </g>
      <g id="Groupe_82" data-name="Groupe 82" transform="translate(12.521 115.345)">
        <path id="Tracé_102" data-name="Tracé 102" d="M126.089,24.444v1.208H4.529l-.093-1.208Z" transform="translate(5.841 -14.165)" fill="#ededed"/>
        <path id="Tracé_103" data-name="Tracé 103" d="M134.366,44.209H12.806A10.28,10.28,0,0,1,2.558,34.717l-.093-1.208A10.28,10.28,0,0,1,12.714,22.444H134.361A10.282,10.282,0,0,1,144.64,32.723V33.93A10.275,10.275,0,0,1,134.366,44.209Z" transform="translate(-2.436 -22.444)"/>
      </g>
      <g id="Groupe_83" data-name="Groupe 83" transform="translate(134.172 115.345)">
        <path id="Tracé_104" data-name="Tracé 104" d="M149.754,24.444l-.092,1.208H28.107V24.444Z" transform="translate(-17.828 -14.165)" fill="#ededed"/>
        <path id="Tracé_105" data-name="Tracé 105" d="M157.946,44.209H36.386A10.282,10.282,0,0,1,26.107,33.93V32.723A10.282,10.282,0,0,1,36.386,22.444H158.038a10.28,10.28,0,0,1,10.248,11.065l-.093,1.208A10.28,10.28,0,0,1,157.946,44.209Z" transform="translate(-26.107 -22.444)"/>
      </g>
      <g id="Groupe_84" data-name="Groupe 84" transform="translate(22.798 126.832)" opacity="0.1">
        <path id="Tracé_106" data-name="Tracé 106" d="M215.178,24.679,195.757,287.061a43.156,43.156,0,0,1-43.067,40.426H66.884a43.153,43.153,0,0,1-43.067-40.431L4.436,24.679Z" transform="translate(-4.436 -24.679)" fill="#fff"/>
      </g>
      <g id="Groupe_85" data-name="Groupe 85" transform="translate(13.614 117.555)">
        <path id="Tracé_107" data-name="Tracé 107" d="M192.551,344.23H74.373A52.528,52.528,0,0,1,22.05,295.108L2.674,32.834a9.275,9.275,0,0,1,9.251-9.96h243.12a9.283,9.283,0,0,1,9.251,9.96L244.869,295.211A52.507,52.507,0,0,1,192.551,344.23ZM21.911,41.427,40.556,293.839a33.962,33.962,0,0,0,33.817,31.838H192.551a33.948,33.948,0,0,0,33.812-31.74L245.054,41.422H21.911Z" transform="translate(-2.649 -22.874)"/>
      </g>
      <g id="Groupe_86" data-name="Groupe 86" transform="translate(10.279 79.293)">
        <path id="Tracé_108" data-name="Tracé 108" d="M270.3,39.358v23.6H2v-23.6A23.939,23.939,0,0,1,25.98,15.429H246.369A23.928,23.928,0,0,1,270.3,39.358Z" transform="translate(-2 -15.429)" fill="#ededed"/>
      </g>
      <g id="Groupe_87" data-name="Groupe 87" transform="translate(60.474 79.257)">
        <path id="Tracé_109" data-name="Tracé 109" d="M179.673,39.351v23.6H11.767v-23.6c0-13.218,6.707-23.929,15.007-23.929H164.7C172.967,15.422,179.673,26.132,179.673,39.351Z" transform="translate(-11.767 -15.422)" fill="#fcfafb"/>
      </g>
      <g id="Groupe_88" data-name="Groupe 88" transform="translate(0 69.015)">
        <path id="Tracé_110" data-name="Tracé 110" d="M0,71.246v-23.6A34.252,34.252,0,0,1,34.212,13.429H254.6A34.275,34.275,0,0,1,288.86,47.641v23.6a10.282,10.282,0,0,1-10.279,10.279H10.279A10.282,10.282,0,0,1,0,71.246Zm268.3-23.61a13.694,13.694,0,0,0-13.7-13.655H34.212A13.678,13.678,0,0,0,20.557,47.636V60.962H268.3Z" transform="translate(0 -13.429)"/>
      </g>
      <g id="Groupe_89" data-name="Groupe 89" transform="translate(159.642 342.01)">
        <path id="Tracé_111" data-name="Tracé 111" d="M49.148,107.657h4.939A18.085,18.085,0,0,0,72.172,89.572V84.633A18.085,18.085,0,0,0,54.087,66.548H49.148A18.085,18.085,0,0,0,31.063,84.633v4.939A18.085,18.085,0,0,0,49.148,107.657Z" transform="translate(-31.063 -66.548)" fill="#c20000"/>
      </g>
      <g id="Groupe_90" data-name="Groupe 90" transform="translate(82.07 279.438)">
        <path id="Tracé_112" data-name="Tracé 112" d="M34.054,95.482h4.939A18.085,18.085,0,0,0,57.078,77.4V72.458A18.085,18.085,0,0,0,38.993,54.373H34.054A18.085,18.085,0,0,0,15.969,72.458V77.4A18.085,18.085,0,0,0,34.054,95.482Z" transform="translate(-15.969 -54.373)" fill="#c20000"/>
      </g>
      <g id="Groupe_91" data-name="Groupe 91" transform="translate(169.921 231.9)">
        <path id="Tracé_113" data-name="Tracé 113" d="M51.148,86.232h4.939A18.085,18.085,0,0,0,74.172,68.147V63.208A18.085,18.085,0,0,0,56.087,45.123H51.148A18.085,18.085,0,0,0,33.063,63.208v4.939A18.082,18.082,0,0,0,51.148,86.232Z" transform="translate(-33.063 -45.123)" fill="#c20000"/>
      </g>
    </g>
    <g id="_x35_5" data-name="_x35_" transform="translate(256.704 613.914) rotate(-16)">
      <g id="Groupe_92" data-name="Groupe 92" transform="translate(50.949 0)">
        <path id="Tracé_114" data-name="Tracé 114" d="M83.886,488.589l13.179-1.652A12.479,12.479,0,0,0,107.9,473L47.574,2,9.616,6.764,69.938,477.752A12.486,12.486,0,0,0,83.886,488.589Z" transform="translate(3.764 11.383)" fill="#ededed"/>
        <path id="Tracé_115" data-name="Tracé 115" d="M93.647,513.453a25.876,25.876,0,0,1-25.609-22.645L7.723,19.847A13.376,13.376,0,0,1,19.33,4.875L57.288.112A13.363,13.363,0,0,1,72.226,11.685L132.548,482.68A25.855,25.855,0,0,1,110.1,511.593l-13.172,1.652A25.865,25.865,0,0,1,93.647,513.453ZM35.967,29.755,94.476,486.587l11.406-1.432L47.373,28.323Z" transform="translate(-7.616 0)"/>
      </g>
      <g id="Groupe_93" data-name="Groupe 93" transform="translate(36.881 248.391)">
        <path id="Tracé_116" data-name="Tracé 116" d="M5.513,50.6l18.129,244.88A56.176,56.176,0,0,0,79.7,348.1H233.534a56.172,56.172,0,0,0,56.06-52.629l18.1-244.987S243.957,20.4,156.6,50.535,5.513,50.6,5.513,50.6Z" transform="translate(-5.513 -37.13)" fill="#a4ff9d"/>
      </g>
      <g id="Groupe_94" data-name="Groupe 94" transform="translate(16.298 150.144)">
        <path id="Tracé_117" data-name="Tracé 117" d="M162.79,24.444v1.572H4.556l-.12-1.572Z" transform="translate(8.942 -11.064)" fill="#ededed"/>
        <path id="Tracé_118" data-name="Tracé 118" d="M174.168,50.775H15.934A13.381,13.381,0,0,1,2.6,38.419l-.12-1.572a13.382,13.382,0,0,1,13.339-14.4H174.161a13.384,13.384,0,0,1,13.38,13.38V37.4A13.374,13.374,0,0,1,174.168,50.775Z" transform="translate(-2.436 -22.444)"/>
      </g>
      <g id="Groupe_95" data-name="Groupe 95" transform="translate(174.65 150.144)">
        <path id="Tracé_119" data-name="Tracé 119" d="M186.454,24.444l-.12,1.572H28.107V24.444Z" transform="translate(-14.727 -11.064)" fill="#ededed"/>
        <path id="Tracé_120" data-name="Tracé 120" d="M197.72,50.775H39.487A13.384,13.384,0,0,1,26.107,37.4V35.824a13.384,13.384,0,0,1,13.38-13.38H197.84a13.382,13.382,0,0,1,13.339,14.4l-.12,1.572A13.381,13.381,0,0,1,197.72,50.775Z" transform="translate(-26.107 -22.444)"/>
      </g>
      <g id="Groupe_96" data-name="Groupe 96" transform="translate(29.676 165.096)" opacity="0.1">
        <path id="Tracé_121" data-name="Tracé 121" d="M278.757,24.679l-25.281,341.54a56.176,56.176,0,0,1-56.06,52.622H85.724a56.172,56.172,0,0,1-56.06-52.629L4.436,24.679Z" transform="translate(-4.436 -24.679)" fill="#fff"/>
      </g>
      <g id="Groupe_97" data-name="Groupe 97" transform="translate(17.722 153.021)">
        <path id="Tracé_122" data-name="Tracé 122" d="M249.843,441.18H96.011A68.375,68.375,0,0,1,27.9,377.239L2.682,35.839A12.074,12.074,0,0,1,14.724,22.874H331.191a12.083,12.083,0,0,1,12.042,12.965L317.945,377.372A68.347,68.347,0,0,1,249.843,441.18ZM27.722,47.024,51.992,375.586A44.207,44.207,0,0,0,96.011,417.03H249.843a44.19,44.19,0,0,0,44.012-41.316l24.331-328.7H27.722Z" transform="translate(-2.649 -22.874)"/>
      </g>
      <g id="Groupe_98" data-name="Groupe 98" transform="translate(13.38 103.215)">
        <path id="Tracé_123" data-name="Tracé 123" d="M351.24,46.577V77.3H2V46.577A31.161,31.161,0,0,1,33.215,15.429H320.093A31.147,31.147,0,0,1,351.24,46.577Z" transform="translate(-2 -15.429)" fill="#ededed"/>
      </g>
      <g id="Groupe_99" data-name="Groupe 99" transform="translate(78.719 103.168)">
        <path id="Tracé_124" data-name="Tracé 124" d="M230.329,46.57V77.3H11.767V46.57c0-17.206,8.73-31.148,19.534-31.148H210.835C221.6,15.422,230.329,29.364,230.329,46.57Z" transform="translate(-11.767 -15.422)" fill="#fcfafb"/>
      </g>
      <g id="Groupe_100" data-name="Groupe 100" transform="translate(0 89.835)">
        <path id="Tracé_125" data-name="Tracé 125" d="M0,88.689V57.963A44.586,44.586,0,0,1,44.534,13.429H331.412a44.616,44.616,0,0,1,44.594,44.534V88.689a13.384,13.384,0,0,1-13.38,13.38H13.38A13.384,13.384,0,0,1,0,88.689ZM349.24,57.956a17.826,17.826,0,0,0-17.835-17.775H44.534A17.8,17.8,0,0,0,26.759,57.956V75.3H349.24Z" transform="translate(0 -13.429)"/>
      </g>
      <g id="Groupe_101" data-name="Groupe 101" transform="translate(207.805 445.19)">
        <path id="Tracé_126" data-name="Tracé 126" d="M54.6,120.06h6.429A23.541,23.541,0,0,0,84.575,96.518V90.089A23.541,23.541,0,0,0,61.033,66.548H54.6A23.541,23.541,0,0,0,31.063,90.089v6.429A23.541,23.541,0,0,0,54.6,120.06Z" transform="translate(-31.063 -66.548)" fill="#9af593"/>
      </g>
      <g id="Groupe_102" data-name="Groupe 102" transform="translate(106.829 363.742)">
        <path id="Tracé_127" data-name="Tracé 127" d="M39.51,107.885h6.429A23.541,23.541,0,0,0,69.481,84.343V77.914A23.541,23.541,0,0,0,45.939,54.373H39.51A23.541,23.541,0,0,0,15.969,77.914v6.429A23.541,23.541,0,0,0,39.51,107.885Z" transform="translate(-15.969 -54.373)" fill="#9af593"/>
      </g>
      <g id="Groupe_103" data-name="Groupe 103" transform="translate(221.184 301.862)">
        <path id="Tracé_128" data-name="Tracé 128" d="M56.6,98.635h6.429A23.541,23.541,0,0,0,86.575,75.093V68.664A23.541,23.541,0,0,0,63.033,45.123H56.6A23.541,23.541,0,0,0,33.063,68.664v6.429A23.537,23.537,0,0,0,56.6,98.635Z" transform="translate(-33.063 -45.123)" fill="#9af593"/>
      </g>
    </g>
    <g id="_x35_6" data-name="_x35_" transform="matrix(0.809, 0.588, -0.588, 0.809, 691.025, 79.031)">
      <g id="Groupe_92-2" data-name="Groupe 92" transform="translate(30.56 0)">
        <path id="Tracé_114-2" data-name="Tracé 114" d="M54.164,293.859l7.9-.991a7.485,7.485,0,0,0,6.5-8.362L32.383,2,9.616,4.858,45.8,287.359A7.489,7.489,0,0,0,54.164,293.859Z" transform="translate(-1.591 6.027)" fill="#ededed"/>
        <path id="Tracé_115-2" data-name="Tracé 115" d="M59.218,307.972a15.521,15.521,0,0,1-15.36-13.583L7.68,11.9a8.023,8.023,0,0,1,6.962-8.98L37.409.067a8.015,8.015,0,0,1,8.96,6.942l36.181,282.5a15.508,15.508,0,0,1-13.462,17.342l-7.9.991A15.516,15.516,0,0,1,59.218,307.972ZM24.621,17.847l35.094,274.01L66.557,291,31.463,16.988Z" transform="translate(-7.616 0)"/>
      </g>
      <g id="Groupe_93-2" data-name="Groupe 93" transform="translate(22.121 148.986)">
        <path id="Tracé_116-2" data-name="Tracé 116" d="M5.513,45.207l10.874,146.88A33.7,33.7,0,0,0,50.012,223.65h92.269a33.692,33.692,0,0,0,33.625-31.567L186.761,45.139s-38.228-18.04-90.624.032S5.513,45.207,5.513,45.207Z" transform="translate(-5.513 -37.13)" fill="#a4ff9d"/>
      </g>
      <g id="Groupe_94-2" data-name="Groupe 94" transform="translate(9.776 90.057)">
        <path id="Tracé_117-2" data-name="Tracé 117" d="M99.417,24.444v.943H4.508l-.072-.943Z" transform="translate(3.588 -16.419)" fill="#ededed"/>
        <path id="Tracé_118-2" data-name="Tracé 118" d="M105.442,39.437H10.533a8.026,8.026,0,0,1-8-7.411l-.072-.943a8.026,8.026,0,0,1,8-8.639h94.977a8.028,8.028,0,0,1,8.025,8.025v.943A8.022,8.022,0,0,1,105.442,39.437Z" transform="translate(-2.436 -22.444)"/>
      </g>
      <g id="Groupe_95-2" data-name="Groupe 95" transform="translate(104.756 90.057)">
        <path id="Tracé_119-2" data-name="Tracé 119" d="M123.084,24.444l-.072.943H28.107v-.943Z" transform="translate(-20.082 -16.419)" fill="#ededed"/>
        <path id="Tracé_120-2" data-name="Tracé 120" d="M129.041,39.437H34.132a8.028,8.028,0,0,1-8.025-8.025v-.943a8.028,8.028,0,0,1,8.025-8.025h94.981a8.026,8.026,0,0,1,8,8.639l-.072.943A8.026,8.026,0,0,1,129.041,39.437Z" transform="translate(-26.107 -22.444)"/>
      </g>
      <g id="Groupe_96-2" data-name="Groupe 96" transform="translate(17.8 99.025)" opacity="0.1">
        <path id="Tracé_121-2" data-name="Tracé 121" d="M168.975,24.679,153.812,229.537A33.7,33.7,0,0,1,120.187,261.1H53.193a33.692,33.692,0,0,1-33.625-31.567L4.436,24.679Z" transform="translate(-4.436 -24.679)" fill="#fff"/>
      </g>
      <g id="Groupe_97-2" data-name="Groupe 97" transform="translate(10.63 91.783)">
        <path id="Tracé_122-2" data-name="Tracé 122" d="M150.917,273.776H58.648A41.012,41.012,0,0,1,17.8,235.424L2.669,30.65a7.242,7.242,0,0,1,7.223-7.776H199.71a7.248,7.248,0,0,1,7.223,7.776L191.765,235.5A41,41,0,0,1,150.917,273.776ZM17.688,37.359,32.245,234.433a26.516,26.516,0,0,0,26.4,24.858h92.269a26.505,26.505,0,0,0,26.4-24.782L191.909,37.355H17.688Z" transform="translate(-2.649 -22.874)"/>
      </g>
      <g id="Groupe_98-2" data-name="Groupe 98" transform="translate(8.025 61.909)">
        <path id="Tracé_123-2" data-name="Tracé 123" d="M211.476,34.112v18.43H2V34.112A18.691,18.691,0,0,1,20.723,15.429H192.794A18.682,18.682,0,0,1,211.476,34.112Z" transform="translate(-2 -15.429)" fill="#ededed"/>
      </g>
      <g id="Groupe_99-2" data-name="Groupe 99" transform="translate(47.216 61.881)">
        <path id="Tracé_124-2" data-name="Tracé 124" d="M142.862,34.1v18.43H11.767V34.1c0-10.32,5.236-18.683,11.717-18.683H131.169C137.625,15.422,142.862,23.784,142.862,34.1Z" transform="translate(-11.767 -15.422)" fill="#fcfafb"/>
      </g>
      <g id="Groupe_100-2" data-name="Groupe 100" transform="translate(0 53.884)">
        <path id="Tracé_125-2" data-name="Tracé 125" d="M0,58.57V40.141A26.743,26.743,0,0,1,26.712,13.429H198.783A26.761,26.761,0,0,1,225.53,40.141V58.57a8.028,8.028,0,0,1-8.025,8.025H8.025A8.028,8.028,0,0,1,0,58.57ZM209.476,40.137a10.692,10.692,0,0,0-10.7-10.661H26.712A10.679,10.679,0,0,0,16.05,40.137v10.4H209.476Z" transform="translate(0 -13.429)"/>
      </g>
      <g id="Groupe_101-2" data-name="Groupe 101" transform="translate(124.642 267.027)">
        <path id="Tracé_126-2" data-name="Tracé 126" d="M45.183,98.645h3.856a14.12,14.12,0,0,0,14.12-14.12V80.668a14.12,14.12,0,0,0-14.12-14.12H45.183a14.12,14.12,0,0,0-14.12,14.12v3.856A14.12,14.12,0,0,0,45.183,98.645Z" transform="translate(-31.063 -66.548)" fill="#9af593"/>
      </g>
      <g id="Groupe_102-2" data-name="Groupe 102" transform="translate(64.077 218.174)">
        <path id="Tracé_127-2" data-name="Tracé 127" d="M30.089,86.47h3.856a14.12,14.12,0,0,0,14.12-14.12V68.493a14.12,14.12,0,0,0-14.12-14.12H30.089a14.12,14.12,0,0,0-14.12,14.12v3.856A14.12,14.12,0,0,0,30.089,86.47Z" transform="translate(-15.969 -54.373)" fill="#9af593"/>
      </g>
      <g id="Groupe_103-2" data-name="Groupe 103" transform="translate(132.668 181.058)">
        <path id="Tracé_128-2" data-name="Tracé 128" d="M47.183,77.22h3.856A14.12,14.12,0,0,0,65.16,63.1V59.243a14.12,14.12,0,0,0-14.12-14.12H47.183a14.12,14.12,0,0,0-14.12,14.12V63.1A14.118,14.118,0,0,0,47.183,77.22Z" transform="translate(-33.063 -45.123)" fill="#9af593"/>
      </g>
    </g>
    <g id="_x35_7" data-name="_x35_" transform="translate(861.599 100.146) rotate(30)">
      <g id="Groupe_80-2" data-name="Groupe 80" transform="translate(61.658 0)">
        <path id="Tracé_99-2" data-name="Tracé 99" d="M99.5,590.857l15.949-2a15.1,15.1,0,0,0,13.107-16.872L55.552,2,9.616,7.765l73,569.976A15.11,15.11,0,0,0,99.5,590.857Z" transform="translate(6.576 14.196)" fill="#ededed"/>
        <path id="Tracé_100-2" data-name="Tracé 100" d="M111.728,621.367a31.315,31.315,0,0,1-30.991-27.4L7.746,24.018A16.187,16.187,0,0,1,21.792,5.9L67.727.136A16.171,16.171,0,0,1,85.805,14.141l73,569.985a31.289,31.289,0,0,1-27.161,34.99l-15.941,2A31.3,31.3,0,0,1,111.728,621.367ZM41.926,36.008l70.806,552.846,13.8-1.732L55.729,34.276Z" transform="translate(-7.616 0)"/>
      </g>
      <g id="Groupe_81-2" data-name="Groupe 81" transform="translate(44.632 300.596)">
        <path id="Tracé_101-2" data-name="Tracé 101" d="M5.513,53.426l21.94,296.347A67.983,67.983,0,0,0,95.3,413.454H281.458a67.978,67.978,0,0,0,67.843-63.69L371.2,53.288s-77.129-36.4-182.844.065S5.513,53.426,5.513,53.426Z" transform="translate(-5.513 -37.13)" fill="#c00"/>
      </g>
      <g id="Groupe_82-2" data-name="Groupe 82" transform="translate(19.724 181.7)">
        <path id="Tracé_102-2" data-name="Tracé 102" d="M196.072,24.444v1.9H4.582l-.146-1.9Z" transform="translate(11.753 -8.252)" fill="#ededed"/>
        <path id="Tracé_103-2" data-name="Tracé 103" d="M210.261,56.73H18.771A16.193,16.193,0,0,1,2.628,41.777l-.146-1.9a16.194,16.194,0,0,1,16.143-17.43H210.253a16.2,16.2,0,0,1,16.192,16.192v1.9A16.185,16.185,0,0,1,210.261,56.73Z" transform="translate(-2.436 -22.444)"/>
      </g>
      <g id="Groupe_83-2" data-name="Groupe 83" transform="translate(211.357 181.7)">
        <path id="Tracé_104-2" data-name="Tracé 104" d="M219.734,24.444l-.146,1.9H28.107v-1.9Z" transform="translate(-11.915 -8.252)" fill="#ededed"/>
        <path id="Tracé_105-2" data-name="Tracé 105" d="M233.788,56.73H42.3A16.2,16.2,0,0,1,26.107,40.538v-1.9A16.2,16.2,0,0,1,42.3,22.444H233.934a16.194,16.194,0,0,1,16.143,17.43l-.146,1.9A16.193,16.193,0,0,1,233.788,56.73Z" transform="translate(-26.107 -22.444)"/>
      </g>
      <g id="Groupe_84-2" data-name="Groupe 84" transform="translate(35.913 199.794)" opacity="0.1">
        <path id="Tracé_106-2" data-name="Tracé 106" d="M336.412,24.679,305.818,438a67.983,67.983,0,0,1-67.843,63.682H102.808a67.978,67.978,0,0,1-67.843-63.69L4.436,24.679Z" transform="translate(-4.436 -24.679)" fill="#fff"/>
      </g>
      <g id="Groupe_85-2" data-name="Groupe 85" transform="translate(21.446 185.181)">
        <path id="Tracé_107-2" data-name="Tracé 107" d="M301.8,529.1H115.633a82.745,82.745,0,0,1-82.423-77.38L2.689,38.564a14.611,14.611,0,0,1,14.572-15.69h382.98a14.623,14.623,0,0,1,14.572,15.69l-30.6,413.315A82.712,82.712,0,0,1,301.8,529.1Zm-268.8-477L62.363,449.717a53.5,53.5,0,0,0,53.27,50.154H301.8a53.477,53.477,0,0,0,53.262-50L384.5,52.092H32.991Z" transform="translate(-2.649 -22.874)"/>
      </g>
      <g id="Groupe_86-2" data-name="Groupe 86" transform="translate(16.192 124.908)">
        <path id="Tracé_108-2" data-name="Tracé 108" d="M424.641,53.123V90.307H2V53.123A37.711,37.711,0,0,1,39.775,15.429H386.947A37.693,37.693,0,0,1,424.641,53.123Z" transform="translate(-2 -15.429)" fill="#ededed"/>
      </g>
      <g id="Groupe_87-2" data-name="Groupe 87" transform="translate(95.263 124.851)">
        <path id="Tracé_109-2" data-name="Tracé 109" d="M276.265,53.116V90.3H11.767V53.116c0-20.822,10.565-37.694,23.64-37.694H252.674C265.7,15.422,276.265,32.294,276.265,53.116Z" transform="translate(-11.767 -15.422)" fill="#fcfafb"/>
      </g>
      <g id="Groupe_88-2" data-name="Groupe 88" transform="translate(0 108.716)">
        <path id="Tracé_110-2" data-name="Tracé 110" d="M0,104.507V67.323A53.957,53.957,0,0,1,53.894,13.429H401.066a53.993,53.993,0,0,1,53.967,53.894v37.184A16.2,16.2,0,0,1,438.841,120.7H16.192A16.2,16.2,0,0,1,0,104.507ZM422.641,67.315A21.572,21.572,0,0,0,401.058,45.8H53.894A21.546,21.546,0,0,0,32.383,67.315V88.307H422.641Z" transform="translate(0 -13.429)"/>
      </g>
      <g id="Groupe_89-2" data-name="Groupe 89" transform="translate(251.48 538.757)">
        <path id="Tracé_111-2" data-name="Tracé 111" d="M59.552,131.306h7.78a28.489,28.489,0,0,0,28.489-28.489v-7.78A28.489,28.489,0,0,0,67.332,66.548h-7.78A28.489,28.489,0,0,0,31.063,95.037v7.78A28.489,28.489,0,0,0,59.552,131.306Z" transform="translate(-31.063 -66.548)" fill="#c20000"/>
      </g>
      <g id="Groupe_90-2" data-name="Groupe 90" transform="translate(129.282 440.191)">
        <path id="Tracé_112-2" data-name="Tracé 112" d="M44.458,119.131h7.78A28.489,28.489,0,0,0,80.727,90.642v-7.78A28.489,28.489,0,0,0,52.238,54.373h-7.78A28.489,28.489,0,0,0,15.969,82.862v7.78A28.489,28.489,0,0,0,44.458,119.131Z" transform="translate(-15.969 -54.373)" fill="#c20000"/>
      </g>
      <g id="Groupe_91-2" data-name="Groupe 91" transform="translate(267.671 365.305)">
        <path id="Tracé_113-2" data-name="Tracé 113" d="M61.552,109.881h7.78A28.489,28.489,0,0,0,97.821,81.392v-7.78A28.489,28.489,0,0,0,69.332,45.123h-7.78A28.489,28.489,0,0,0,33.063,73.612v7.78A28.484,28.484,0,0,0,61.552,109.881Z" transform="translate(-33.063 -45.123)" fill="#c20000"/>
      </g>
    </g>
    <g id="_x35_8" data-name="_x35_" transform="translate(428.93 387.878)">
      <g id="Groupe_104-2" data-name="Groupe 104" transform="translate(29.881 0)">
        <path id="Tracé_129-2" data-name="Tracé 129" d="M53.175,287.38l7.729-.969a7.319,7.319,0,0,0,6.352-8.177L31.878,2,9.616,4.795,44.994,281.023A7.323,7.323,0,0,0,53.175,287.38Z" transform="translate(-1.769 5.849)" fill="#ededed"/>
        <path id="Tracé_130-2" data-name="Tracé 130" d="M58.072,301.134a15.176,15.176,0,0,1-15.019-13.281L7.679,11.64a7.845,7.845,0,0,1,6.807-8.781L36.748.066a7.837,7.837,0,0,1,8.761,6.788L80.887,283.086a15.164,15.164,0,0,1-13.163,16.957L60,301.013A15.17,15.17,0,0,1,58.072,301.134ZM24.244,17.451,58.559,285.378l6.69-.84L30.933,16.611Z" transform="translate(-7.616 0)"/>
      </g>
      <g id="Groupe_105-2" data-name="Groupe 105" transform="translate(21.63 145.679)">
        <path id="Tracé_131-2" data-name="Tracé 131" d="M5.513,45.028,16.146,188.647a32.947,32.947,0,0,0,32.879,30.862h90.22a32.944,32.944,0,0,0,32.879-30.866L182.737,44.961s-37.379-17.64-88.612.031S5.513,45.028,5.513,45.028Z" transform="translate(-5.513 -37.13)" fill="#60d0f3"/>
      </g>
      <g id="Groupe_106-2" data-name="Groupe 106" transform="translate(9.559 88.058)">
        <path id="Tracé_132-2" data-name="Tracé 132" d="M97.309,24.444v.922H4.507l-.071-.922Z" transform="translate(3.41 -16.597)" fill="#ededed"/>
        <path id="Tracé_133-2" data-name="Tracé 133" d="M103.155,39.06h-92.8a7.848,7.848,0,0,1-7.823-7.247l-.071-.922a7.848,7.848,0,0,1,7.823-8.447h92.869A7.85,7.85,0,0,1,111,30.291v.922A7.844,7.844,0,0,1,103.155,39.06Z" transform="translate(-2.436 -22.444)"/>
      </g>
      <g id="Groupe_107-2" data-name="Groupe 107" transform="translate(102.43 88.058)">
        <path id="Tracé_134-2" data-name="Tracé 134" d="M120.976,24.444l-.071.922h-92.8v-.922Z" transform="translate(-20.26 -16.597)" fill="#ededed"/>
        <path id="Tracé_135-2" data-name="Tracé 135" d="M126.756,39.06h-92.8a7.85,7.85,0,0,1-7.847-7.847v-.922a7.85,7.85,0,0,1,7.847-7.847h92.873a7.848,7.848,0,0,1,7.823,8.447l-.071.922A7.848,7.848,0,0,1,126.756,39.06Z" transform="translate(-26.107 -22.444)"/>
      </g>
      <g id="Groupe_108-2" data-name="Groupe 108" transform="translate(17.405 96.827)" opacity="0.1">
        <path id="Tracé_136-2" data-name="Tracé 136" d="M165.322,24.679,150.5,224.989a32.947,32.947,0,0,1-32.879,30.862H52.11a32.944,32.944,0,0,1-32.879-30.866L4.436,24.679Z" transform="translate(-4.436 -24.679)" fill="#fff"/>
      </g>
      <g id="Groupe_109-2" data-name="Groupe 109" transform="translate(10.394 89.745)">
        <path id="Tracé_137-2" data-name="Tracé 137" d="M147.625,268.206H57.4A40.1,40.1,0,0,1,17.46,230.7L2.668,30.478a7.081,7.081,0,0,1,7.062-7.6h185.6a7.087,7.087,0,0,1,7.062,7.6L187.566,230.783A40.085,40.085,0,0,1,147.625,268.206ZM17.354,37.038l14.234,192.7A25.927,25.927,0,0,0,57.4,254.042h90.221a25.917,25.917,0,0,0,25.813-24.231l14.27-192.776H17.354Z" transform="translate(-2.649 -22.874)"/>
      </g>
      <g id="Groupe_110-2" data-name="Groupe 110" transform="translate(7.847 60.535)">
        <path id="Tracé_138-2" data-name="Tracé 138" d="M206.825,33.7V51.717H2V33.7A18.276,18.276,0,0,1,20.307,15.429H188.558A18.267,18.267,0,0,1,206.825,33.7Z" transform="translate(-2 -15.429)" fill="#ededed"/>
      </g>
      <g id="Groupe_111-2" data-name="Groupe 111" transform="translate(46.168 60.507)">
        <path id="Tracé_139-2" data-name="Tracé 139" d="M139.951,33.69V51.71H11.767V33.69c0-10.091,5.12-18.268,11.457-18.268H128.518C134.831,15.422,139.951,23.6,139.951,33.69Z" transform="translate(-11.767 -15.422)" fill="#fcfafb"/>
      </g>
      <g id="Groupe_112-2" data-name="Groupe 112" transform="translate(0 52.688)">
        <path id="Tracé_140-2" data-name="Tracé 140" d="M0,57.568V39.548A26.149,26.149,0,0,1,26.119,13.429H194.369a26.167,26.167,0,0,1,26.154,26.119V57.568a7.85,7.85,0,0,1-7.847,7.847H7.847A7.85,7.85,0,0,1,0,57.568ZM204.825,39.544a10.454,10.454,0,0,0-10.46-10.425H26.119A10.442,10.442,0,0,0,15.694,39.544V49.717H204.825Z" transform="translate(0 -13.429)"/>
      </g>
      <g id="Groupe_113-2" data-name="Groupe 113" transform="translate(121.875 261.099)">
        <path id="Tracé_141-2" data-name="Tracé 141" d="M44.87,97.932h3.77A13.807,13.807,0,0,0,62.447,84.125v-3.77A13.807,13.807,0,0,0,48.64,66.548H44.87A13.807,13.807,0,0,0,31.063,80.355v3.77A13.807,13.807,0,0,0,44.87,97.932Z" transform="translate(-31.063 -66.548)" fill="#56c6e9"/>
      </g>
      <g id="Groupe_114-2" data-name="Groupe 114" transform="translate(62.654 213.331)">
        <path id="Tracé_142-2" data-name="Tracé 142" d="M29.776,85.757h3.77A13.807,13.807,0,0,0,47.353,71.95V68.18A13.807,13.807,0,0,0,33.546,54.373h-3.77A13.807,13.807,0,0,0,15.969,68.18v3.77A13.807,13.807,0,0,0,29.776,85.757Z" transform="translate(-15.969 -54.373)" fill="#56c6e9"/>
      </g>
      <g id="Groupe_115-2" data-name="Groupe 115" transform="translate(129.722 177.039)">
        <path id="Tracé_143-2" data-name="Tracé 143" d="M46.87,76.507h3.77A13.807,13.807,0,0,0,64.447,62.7V58.93A13.807,13.807,0,0,0,50.64,45.123H46.87A13.807,13.807,0,0,0,33.063,58.93V62.7A13.8,13.8,0,0,0,46.87,76.507Z" transform="translate(-33.063 -45.123)" fill="#56c6e9"/>
      </g>
    </g>
  </g>
</svg>
