<svg xmlns="http://www.w3.org/2000/svg" xmlns:xlink="http://www.w3.org/1999/xlink"  viewBox="0 0 82.667 81.738">
    <path id="Tracé_31" data-name="Tracé 31" d="M40.507,81.541c-12.379.358-24.756.181-37.133-.151-1.281-.035-1.734-.528-1.911-1.556a19.363,19.363,0,0,1-.282-6.965c.707-4.036-.592-8.3-.564-12.318.03-4.4-.957-8.82-.1-13.28C1.38,42.737-.674,38.012.24,33.607,1.914,25.535.2,17.49.914,9.454c.193-2.168.65-4.463.34-6.572C.833.014,1.27-.676,4.006.646A6.353,6.353,0,0,0,6.481.718C12.671.064,18.854.6,25.027.932c9.3.507,18.522-1.262,27.838-.605,6.946.489,13.937.326,20.9.55C76.108.951,78.3-.331,80.814.723c1.523.639,1.972,1.056,1.827,2.692-.477,5.343.34,10.753-.852,16.076-.484,2.161.683,4.176.81,6.338.266,4.533-.861,8.909-.631,13.5.625,12.51.181,25.069.452,37.6.078,3.627-.938,5.008-4.633,4.672-7.6-.693-15.251-.2-22.87-.4-4.705-.123-9.675-1.494-14.408.338" transform="translate(0 0)" fill="#e76d93"/>
    <text id="La" transform="translate(15 44.89)" fill="#fff" font-size="42" font-family="AmericanTypewriter, American Typewriter"><tspan x="0" y="0">La</tspan></text>
    <text id="Gourde" transform="translate(15 62.333)" fill="#fff" font-size="13" font-family="AmericanTypewriter, American Typewriter"><tspan x="0" y="0">Gourde</tspan></text>
</svg>
